  0
SECTION
  2
HEADER
  9
$ACADVER
  1
AC1024
  9
$ACADMAINTVER
 70
6
  9
$DWGCODEPAGE
  3
ANSI_1252
  9
$LASTSAVEDBY
  1
ezdxf
  9
$INSBASE
 10
0.0
 20
0.0
 30
0.0
  9
$EXTMIN
 10
1e+20
 20
1e+20
 30
1e+20
  9
$EXTMAX
 10
-1e+20
 20
-1e+20
 30
-1e+20
  9
$LIMMIN
 10
0.0
 20
0.0
  9
$LIMMAX
 10
420.0
 20
297.0
  9
$ORTHOMODE
 70
0
  9
$REGENMODE
 70
1
  9
$FILLMODE
 70
1
  9
$QTEXTMODE
 70
0
  9
$MIRRTEXT
 70
1
  9
$LTSCALE
 40
1.0
  9
$ATTMODE
 70
1
  9
$TEXTSIZE
 40
2.5
  9
$TRACEWID
 40
1.0
  9
$TEXTSTYLE
  7
Standard
  9
$CLAYER
  8
0
  9
$CELTYPE
  6
ByLayer
  9
$CECOLOR
 62
256
  9
$CELTSCALE
 40
1.0
  9
$DISPSILH
 70
0
  9
$DIMSCALE
 40
1.0
  9
$DIMASZ
 40
2.5
  9
$DIMEXO
 40
0.625
  9
$DIMDLI
 40
3.75
  9
$DIMRND
 40
0.0
  9
$DIMDLE
 40
0.0
  9
$DIMEXE
 40
1.25
  9
$DIMTP
 40
0.0
  9
$DIMTM
 40
0.0
  9
$DIMTXT
 40
2.5
  9
$DIMCEN
 40
2.5
  9
$DIMTSZ
 40
0.0
  9
$DIMTOL
 70
0
  9
$DIMLIM
 70
0
  9
$DIMTIH
 70
0
  9
$DIMTOH
 70
0
  9
$DIMSE1
 70
0
  9
$DIMSE2
 70
0
  9
$DIMTAD
 70
1
  9
$DIMZIN
 70
8
  9
$DIMBLK
  1

  9
$DIMASO
 70
1
  9
$DIMSHO
 70
1
  9
$DIMPOST
  1

  9
$DIMAPOST
  1

  9
$DIMALT
 70
0
  9
$DIMALTD
 70
3
  9
$DIMALTF
 40
0.03937007874
  9
$DIMLFAC
 40
1.0
  9
$DIMTOFL
 70
1
  9
$DIMTVP
 40
0.0
  9
$DIMTIX
 70
0
  9
$DIMSOXD
 70
0
  9
$DIMSAH
 70
0
  9
$DIMBLK1
  1

  9
$DIMBLK2
  1

  9
$DIMSTYLE
  2
ISO-25
  9
$DIMCLRD
 70
0
  9
$DIMCLRE
 70
0
  9
$DIMCLRT
 70
0
  9
$DIMTFAC
 40
1.0
  9
$DIMGAP
 40
0.625
  9
$DIMJUST
 70
0
  9
$DIMSD1
 70
0
  9
$DIMSD2
 70
0
  9
$DIMTOLJ
 70
0
  9
$DIMTZIN
 70
8
  9
$DIMALTZ
 70
0
  9
$DIMALTTZ
 70
0
  9
$DIMUPT
 70
0
  9
$DIMDEC
 70
2
  9
$DIMTDEC
 70
2
  9
$DIMALTU
 70
2
  9
$DIMALTTD
 70
3
  9
$DIMTXSTY
  7
Standard
  9
$DIMAUNIT
 70
0
  9
$DIMADEC
 70
0
  9
$DIMALTRND
 40
0.0
  9
$DIMAZIN
 70
0
  9
$DIMDSEP
 70
44
  9
$DIMATFIT
 70
3
  9
$DIMFRAC
 70
0
  9
$DIMLDRBLK
  1

  9
$DIMLUNIT
 70
2
  9
$DIMLWD
 70
-2
  9
$DIMLWE
 70
-2
  9
$DIMTMOVE
 70
0
  9
$DIMFXL
 40
1.0
  9
$DIMFXLON
 70
0
  9
$DIMJOGANG
 40
0.785398163397
  9
$DIMTFILL
 70
0
  9
$DIMTFILLCLR
 70
0
  9
$DIMARCSYM
 70
0
  9
$DIMLTYPE
  6

  9
$DIMLTEX1
  6

  9
$DIMLTEX2
  6

  9
$DIMTXTDIRECTION
 70
0
  9
$LUNITS
 70
2
  9
$LUPREC
 70
4
  9
$SKETCHINC
 40
1.0
  9
$FILLETRAD
 40
10.0
  9
$AUNITS
 70
0
  9
$AUPREC
 70
2
  9
$MENU
  1
.
  9
$ELEVATION
 40
0.0
  9
$PELEVATION
 40
0.0
  9
$THICKNESS
 40
0.0
  9
$LIMCHECK
 70
0
  9
$CHAMFERA
 40
0.0
  9
$CHAMFERB
 40
0.0
  9
$CHAMFERC
 40
0.0
  9
$CHAMFERD
 40
0.0
  9
$SKPOLY
 70
0
  9
$TDCREATE
 40
2461209.5311342594
  9
$TDUCREATE
 40
2458532.153996898
  9
$TDUPDATE
 40
2461209.5311342594
  9
$TDUUPDATE
 40
2458532.1544311
  9
$TDINDWG
 40
0.0
  9
$TDUSRTIMER
 40
0.0
  9
$USRTIMER
 70
1
  9
$ANGBASE
 50
0.0
  9
$ANGDIR
 70
0
  9
$PDMODE
 70
0
  9
$PDSIZE
 40
0.0
  9
$PLINEWID
 40
0.0
  9
$SPLFRAME
 70
0
  9
$SPLINETYPE
 70
6
  9
$SPLINESEGS
 70
8
  9
$HANDSEED
  5
1D9
  9
$SURFTAB1
 70
6
  9
$SURFTAB2
 70
6
  9
$SURFTYPE
 70
6
  9
$SURFU
 70
6
  9
$SURFV
 70
6
  9
$UCSBASE
  2

  9
$UCSNAME
  2

  9
$UCSORG
 10
0.0
 20
0.0
 30
0.0
  9
$UCSXDIR
 10
1.0
 20
0.0
 30
0.0
  9
$UCSYDIR
 10
0.0
 20
1.0
 30
0.0
  9
$UCSORTHOREF
  2

  9
$UCSORTHOVIEW
 70
0
  9
$UCSORGTOP
 10
0.0
 20
0.0
 30
0.0
  9
$UCSORGBOTTOM
 10
0.0
 20
0.0
 30
0.0
  9
$UCSORGLEFT
 10
0.0
 20
0.0
 30
0.0
  9
$UCSORGRIGHT
 10
0.0
 20
0.0
 30
0.0
  9
$UCSORGFRONT
 10
0.0
 20
0.0
 30
0.0
  9
$UCSORGBACK
 10
0.0
 20
0.0
 30
0.0
  9
$PUCSBASE
  2

  9
$PUCSNAME
  2

  9
$PUCSORG
 10
0.0
 20
0.0
 30
0.0
  9
$PUCSXDIR
 10
1.0
 20
0.0
 30
0.0
  9
$PUCSYDIR
 10
0.0
 20
1.0
 30
0.0
  9
$PUCSORTHOREF
  2

  9
$PUCSORTHOVIEW
 70
0
  9
$PUCSORGTOP
 10
0.0
 20
0.0
 30
0.0
  9
$PUCSORGBOTTOM
 10
0.0
 20
0.0
 30
0.0
  9
$PUCSORGLEFT
 10
0.0
 20
0.0
 30
0.0
  9
$PUCSORGRIGHT
 10
0.0
 20
0.0
 30
0.0
  9
$PUCSORGFRONT
 10
0.0
 20
0.0
 30
0.0
  9
$PUCSORGBACK
 10
0.0
 20
0.0
 30
0.0
  9
$USERI1
 70
0
  9
$USERI2
 70
0
  9
$USERI3
 70
0
  9
$USERI4
 70
0
  9
$USERI5
 70
0
  9
$USERR1
 40
0.0
  9
$USERR2
 40
0.0
  9
$USERR3
 40
0.0
  9
$USERR4
 40
0.0
  9
$USERR5
 40
0.0
  9
$WORLDVIEW
 70
1
  9
$SHADEDGE
 70
3
  9
$SHADEDIF
 70
70
  9
$TILEMODE
 70
1
  9
$MAXACTVP
 70
64
  9
$PINSBASE
 10
0.0
 20
0.0
 30
0.0
  9
$PLIMCHECK
 70
0
  9
$PEXTMIN
 10
1e+20
 20
1e+20
 30
1e+20
  9
$PEXTMAX
 10
-1e+20
 20
-1e+20
 30
-1e+20
  9
$PLIMMIN
 10
0.0
 20
0.0
  9
$PLIMMAX
 10
420.0
 20
297.0
  9
$UNITMODE
 70
0
  9
$VISRETAIN
 70
1
  9
$PLINEGEN
 70
0
  9
$PSLTSCALE
 70
1
  9
$TREEDEPTH
 70
3020
  9
$CMLSTYLE
  2
Standard
  9
$CMLJUST
 70
0
  9
$CMLSCALE
 40
20.0
  9
$PROXYGRAPHICS
 70
1
  9
$MEASUREMENT
 70
1
  9
$CELWEIGHT
370
-1
  9
$ENDCAPS
280
0
  9
$JOINSTYLE
280
0
  9
$LWDISPLAY
290
0
  9
$INSUNITS
 70
6
  9
$HYPERLINKBASE
  1

  9
$STYLESHEET
  1

  9
$XEDIT
290
1
  9
$CEPSNTYPE
380
0
  9
$PSTYLEMODE
290
1
  9
$FINGERPRINTGUID
  2
{8C5BB03D-605A-49E2-BB88-12FB6F8EE22C}
  9
$VERSIONGUID
  2
{7EE34987-AB28-4B66-9DF7-91D099BC11DE}
  9
$EXTNAMES
290
1
  9
$PSVPSCALE
 40
0.0
  9
$OLESTARTUP
290
0
  9
$SORTENTS
280
127
  9
$INDEXCTL
280
0
  9
$HIDETEXT
280
1
  9
$XCLIPFRAME
280
1
  9
$HALOGAP
280
0
  9
$OBSCOLOR
 70
257
  9
$OBSLTYPE
280
0
  9
$INTERSECTIONDISPLAY
280
0
  9
$INTERSECTIONCOLOR
 70
257
  9
$DIMASSOC
280
2
  9
$PROJECTNAME
  1

  9
$CAMERADISPLAY
290
0
  9
$LENSLENGTH
 40
50.0
  9
$CAMERAHEIGHT
 40
0.0
  9
$STEPSPERSEC
 40
24.0
  9
$STEPSIZE
 40
100.0
  9
$3DDWFPREC
 40
2.0
  9
$PSOLWIDTH
 40
0.005
  9
$PSOLHEIGHT
 40
0.08
  9
$LOFTANG1
 40
1.570796326795
  9
$LOFTANG2
 40
1.570796326795
  9
$LOFTMAG1
 40
0.0
  9
$LOFTMAG2
 40
0.0
  9
$LOFTPARAM
 70
7
  9
$LOFTNORMALS
280
1
  9
$LATITUDE
 40
37.795
  9
$LONGITUDE
 40
-122.394
  9
$NORTHDIRECTION
 40
0.0
  9
$TIMEZONE
 70
-8000
  9
$LIGHTGLYPHDISPLAY
280
1
  9
$TILEMODELIGHTSYNCH
280
1
  9
$CMATERIAL
347
20
  9
$SOLIDHIST
280
0
  9
$SHOWHIST
280
1
  9
$DWFFRAME
280
2
  9
$DGNFRAME
280
2
  9
$REALWORLDSCALE
290
1
  9
$INTERFERECOLOR
 62
256
  9
$CSHADOW
280
0
  9
$SHADOWPLANELOCATION
 40
0.0
  0
ENDSEC
  0
SECTION
  2
CLASSES
  0
CLASS
  1
ACDBDICTIONARYWDFLT
  2
AcDbDictionaryWithDefault
  3
ObjectDBX Classes
 90
0
 91
0
280
0
281
0
  0
CLASS
  1
SUN
  2
AcDbSun
  3
SCENEOE
 90
1153
 91
0
280
0
281
0
  0
CLASS
  1
VISUALSTYLE
  2
AcDbVisualStyle
  3
ObjectDBX Classes
 90
4095
 91
0
280
0
281
0
  0
CLASS
  1
MATERIAL
  2
AcDbMaterial
  3
ObjectDBX Classes
 90
1153
 91
0
280
0
281
0
  0
CLASS
  1
SCALE
  2
AcDbScale
  3
ObjectDBX Classes
 90
1153
 91
0
280
0
281
0
  0
CLASS
  1
TABLESTYLE
  2
AcDbTableStyle
  3
ObjectDBX Classes
 90
4095
 91
0
280
0
281
0
  0
CLASS
  1
MLEADERSTYLE
  2
AcDbMLeaderStyle
  3
ACDB_MLEADERSTYLE_CLASS
 90
4095
 91
0
280
0
281
0
  0
CLASS
  1
DICTIONARYVAR
  2
AcDbDictionaryVar
  3
ObjectDBX Classes
 90
0
 91
0
280
0
281
0
  0
CLASS
  1
CELLSTYLEMAP
  2
AcDbCellStyleMap
  3
ObjectDBX Classes
 90
1152
 91
0
280
0
281
0
  0
CLASS
  1
MENTALRAYRENDERSETTINGS
  2
AcDbMentalRayRenderSettings
  3
SCENEOE
 90
1024
 91
0
280
0
281
0
  0
CLASS
  1
ACDBDETAILVIEWSTYLE
  2
AcDbDetailViewStyle
  3
ObjectDBX Classes
 90
1025
 91
0
280
0
281
0
  0
CLASS
  1
ACDBSECTIONVIEWSTYLE
  2
AcDbSectionViewStyle
  3
ObjectDBX Classes
 90
1025
 91
0
280
0
281
0
  0
CLASS
  1
RASTERVARIABLES
  2
AcDbRasterVariables
  3
ISM
 90
0
 91
0
280
0
281
0
  0
CLASS
  1
ACDBPLACEHOLDER
  2
AcDbPlaceHolder
  3
ObjectDBX Classes
 90
0
 91
0
280
0
281
0
  0
CLASS
  1
LAYOUT
  2
AcDbLayout
  3
ObjectDBX Classes
 90
0
 91
0
280
0
281
0
  0
ENDSEC
  0
SECTION
  2
TABLES
  0
TABLE
  2
VPORT
  5
8
330
0
100
AcDbSymbolTable
 70
1
  0
VPORT
  5
23
330
8
100
AcDbSymbolTableRecord
100
AcDbViewportTableRecord
  2
*Active
 70
0
 10
0.0
 20
0.0
 11
1.0
 21
1.0
 12
0.0
 22
0.0
 13
0.0
 23
0.0
 14
0.5
 24
0.5
 15
0.5
 25
0.5
 16
0.0
 26
0.0
 36
1.0
 17
0.0
 27
0.0
 37
0.0
 40
1000.0
 41
1.34
 42
50.0
 43
0.0
 44
0.0
 50
0.0
 51
0.0
 71
0
 72
1000
 73
1
 74
3
 75
0
 76
0
 77
0
 78
0
281
0
 65
0
146
0.0
  0
ENDTAB
  0
TABLE
  2
LTYPE
  5
2
330
0
100
AcDbSymbolTable
 70
3
  0
LTYPE
  5
24
330
2
100
AcDbSymbolTableRecord
100
AcDbLinetypeTableRecord
  2
ByBlock
 70
0
  3

 72
65
 73
0
 40
0.0
  0
LTYPE
  5
25
330
2
100
AcDbSymbolTableRecord
100
AcDbLinetypeTableRecord
  2
ByLayer
 70
0
  3

 72
65
 73
0
 40
0.0
  0
LTYPE
  5
26
330
2
100
AcDbSymbolTableRecord
100
AcDbLinetypeTableRecord
  2
Continuous
 70
0
  3

 72
65
 73
0
 40
0.0
  0
ENDTAB
  0
TABLE
  2
LAYER
  5
1
330
0
100
AcDbSymbolTable
 70
2
  0
LAYER
  5
27
330
1
100
AcDbSymbolTableRecord
100
AcDbLayerTableRecord
  2
0
 70
0
 62
7
  6
Continuous
370
-3
390
13
347
21
  0
LAYER
  5
28
330
1
100
AcDbSymbolTableRecord
100
AcDbLayerTableRecord
  2
Defpoints
 70
0
 62
7
  6
Continuous
290
0
370
-3
390
13
347
21
  0
ENDTAB
  0
TABLE
  2
STYLE
  5
5
330
0
100
AcDbSymbolTable
 70
1
  0
STYLE
  5
29
330
5
100
AcDbSymbolTableRecord
100
AcDbTextStyleTableRecord
  2
Standard
 70
0
 40
0.0
 41
1.0
 50
0.0
 71
0
 42
2.5
  3
txt
  4

  0
ENDTAB
  0
TABLE
  2
VIEW
  5
7
330
0
100
AcDbSymbolTable
 70
0
  0
ENDTAB
  0
TABLE
  2
UCS
  5
6
330
0
100
AcDbSymbolTable
 70
0
  0
ENDTAB
  0
TABLE
  2
APPID
  5
3
330
0
100
AcDbSymbolTable
 70
3
  0
APPID
  5
2A
330
3
100
AcDbSymbolTableRecord
100
AcDbRegAppTableRecord
  2
ACAD
 70
0
  0
APPID
  5
1D6
330
3
100
AcDbSymbolTableRecord
100
AcDbRegAppTableRecord
  2
HATCHBACKGROUNDCOLOR
 70
0
  0
APPID
  5
1D7
330
3
100
AcDbSymbolTableRecord
100
AcDbRegAppTableRecord
  2
EZDXF
 70
0
  0
ENDTAB
  0
TABLE
  2
DIMSTYLE
  5
4
330
0
100
AcDbSymbolTable
 70
1
100
AcDbDimStyleTable
  0
DIMSTYLE
105
2B
330
4
100
AcDbSymbolTableRecord
100
AcDbDimStyleTableRecord
  2
Standard
 70
0
 40
1.0
 41
2.5
 42
0.625
 43
3.75
 44
1.25
 45
0.0
 46
0.0
 47
0.0
 48
0.0
 49
2.5
140
2.5
141
2.5
142
0.0
143
0.03937007874
144
1.0
145
0.0
146
1.0
147
0.625
148
0.0
 69
0
 70
0
 71
0
 72
0
 73
0
 74
0
 75
0
 76
0
 77
1
 78
8
 79
3
170
0
171
3
172
1
173
0
174
0
175
0
176
0
177
0
178
0
179
2
271
2
272
2
273
2
274
3
275
0
276
0
277
2
278
44
279
0
280
0
281
0
282
0
283
0
284
8
285
0
286
0
288
0
289
3
290
0
371
-2
372
-2
  0
ENDTAB
  0
TABLE
  2
BLOCK_RECORD
  5
9
330
0
100
AcDbSymbolTable
 70
2
  0
BLOCK_RECORD
  5
17
330
9
100
AcDbSymbolTableRecord
100
AcDbBlockTableRecord
  2
*Model_Space
340
1A
 70
0
280
1
281
0
  0
BLOCK_RECORD
  5
1B
330
9
100
AcDbSymbolTableRecord
100
AcDbBlockTableRecord
  2
*Paper_Space
340
1E
 70
0
280
1
281
0
  0
ENDTAB
  0
ENDSEC
  0
SECTION
  2
BLOCKS
  0
BLOCK
  5
18
330
17
100
AcDbEntity
  8
0
100
AcDbBlockBegin
  2
*Model_Space
 70
0
 10
0.0
 20
0.0
 30
0.0
  3
*Model_Space
  1

  0
ENDBLK
  5
19
330
17
100
AcDbEntity
  8
0
100
AcDbBlockEnd
  0
BLOCK
  5
1C
330
1B
100
AcDbEntity
  8
0
100
AcDbBlockBegin
  2
*Paper_Space
 70
0
 10
0.0
 20
0.0
 30
0.0
  3
*Paper_Space
  1

  0
ENDBLK
  5
1D
330
1B
100
AcDbEntity
  8
0
100
AcDbBlockEnd
  0
ENDSEC
  0
SECTION
  2
ENTITIES
  0
LINE
  5
2F
330
17
100
AcDbEntity
  8
0
 62
8
370
0
100
AcDbLine
 10
12.7
 20
12.7
 30
0.0
 11
12.7
 21
266.7
 31
0.0
  0
LINE
  5
30
330
17
100
AcDbEntity
  8
0
 62
8
370
0
100
AcDbLine
 10
15.239999999999998
 20
12.7
 30
0.0
 11
15.239999999999998
 21
266.7
 31
0.0
  0
LINE
  5
31
330
17
100
AcDbEntity
  8
0
 62
8
370
0
100
AcDbLine
 10
17.779999999999998
 20
12.7
 30
0.0
 11
17.779999999999998
 21
266.7
 31
0.0
  0
LINE
  5
32
330
17
100
AcDbEntity
  8
0
 62
8
370
0
100
AcDbLine
 10
20.319999999999997
 20
12.7
 30
0.0
 11
20.319999999999997
 21
266.7
 31
0.0
  0
LINE
  5
33
330
17
100
AcDbEntity
  8
0
 62
8
370
0
100
AcDbLine
 10
22.859999999999996
 20
12.7
 30
0.0
 11
22.859999999999996
 21
266.7
 31
0.0
  0
LINE
  5
34
330
17
100
AcDbEntity
  8
0
 62
8
370
0
100
AcDbLine
 10
25.399999999999995
 20
12.7
 30
0.0
 11
25.399999999999995
 21
266.7
 31
0.0
  0
LINE
  5
35
330
17
100
AcDbEntity
  8
0
 62
8
370
0
100
AcDbLine
 10
27.939999999999994
 20
12.7
 30
0.0
 11
27.939999999999994
 21
266.7
 31
0.0
  0
LINE
  5
36
330
17
100
AcDbEntity
  8
0
 62
8
370
0
100
AcDbLine
 10
30.479999999999993
 20
12.7
 30
0.0
 11
30.479999999999993
 21
266.7
 31
0.0
  0
LINE
  5
37
330
17
100
AcDbEntity
  8
0
 62
8
370
0
100
AcDbLine
 10
33.019999999999996
 20
12.7
 30
0.0
 11
33.019999999999996
 21
266.7
 31
0.0
  0
LINE
  5
38
330
17
100
AcDbEntity
  8
0
 62
8
370
0
100
AcDbLine
 10
35.559999999999995
 20
12.7
 30
0.0
 11
35.559999999999995
 21
266.7
 31
0.0
  0
LINE
  5
39
330
17
100
AcDbEntity
  8
0
 62
8
370
0
100
AcDbLine
 10
38.099999999999994
 20
12.7
 30
0.0
 11
38.099999999999994
 21
266.7
 31
0.0
  0
LINE
  5
3A
330
17
100
AcDbEntity
  8
0
 62
8
370
0
100
AcDbLine
 10
40.63999999999999
 20
12.7
 30
0.0
 11
40.63999999999999
 21
266.7
 31
0.0
  0
LINE
  5
3B
330
17
100
AcDbEntity
  8
0
 62
8
370
0
100
AcDbLine
 10
43.17999999999999
 20
12.7
 30
0.0
 11
43.17999999999999
 21
266.7
 31
0.0
  0
LINE
  5
3C
330
17
100
AcDbEntity
  8
0
 62
8
370
0
100
AcDbLine
 10
45.71999999999999
 20
12.7
 30
0.0
 11
45.71999999999999
 21
266.7
 31
0.0
  0
LINE
  5
3D
330
17
100
AcDbEntity
  8
0
 62
8
370
0
100
AcDbLine
 10
48.25999999999999
 20
12.7
 30
0.0
 11
48.25999999999999
 21
266.7
 31
0.0
  0
LINE
  5
3E
330
17
100
AcDbEntity
  8
0
 62
8
370
0
100
AcDbLine
 10
50.79999999999999
 20
12.7
 30
0.0
 11
50.79999999999999
 21
266.7
 31
0.0
  0
LINE
  5
3F
330
17
100
AcDbEntity
  8
0
 62
8
370
0
100
AcDbLine
 10
53.33999999999999
 20
12.7
 30
0.0
 11
53.33999999999999
 21
266.7
 31
0.0
  0
LINE
  5
40
330
17
100
AcDbEntity
  8
0
 62
8
370
0
100
AcDbLine
 10
55.87999999999999
 20
12.7
 30
0.0
 11
55.87999999999999
 21
266.7
 31
0.0
  0
LINE
  5
41
330
17
100
AcDbEntity
  8
0
 62
8
370
0
100
AcDbLine
 10
58.41999999999999
 20
12.7
 30
0.0
 11
58.41999999999999
 21
266.7
 31
0.0
  0
LINE
  5
42
330
17
100
AcDbEntity
  8
0
 62
8
370
0
100
AcDbLine
 10
60.95999999999999
 20
12.7
 30
0.0
 11
60.95999999999999
 21
266.7
 31
0.0
  0
LINE
  5
43
330
17
100
AcDbEntity
  8
0
 62
8
370
0
100
AcDbLine
 10
63.499999999999986
 20
12.7
 30
0.0
 11
63.499999999999986
 21
266.7
 31
0.0
  0
LINE
  5
44
330
17
100
AcDbEntity
  8
0
 62
8
370
0
100
AcDbLine
 10
66.03999999999999
 20
12.7
 30
0.0
 11
66.03999999999999
 21
266.7
 31
0.0
  0
LINE
  5
45
330
17
100
AcDbEntity
  8
0
 62
8
370
0
100
AcDbLine
 10
68.58
 20
12.7
 30
0.0
 11
68.58
 21
266.7
 31
0.0
  0
LINE
  5
46
330
17
100
AcDbEntity
  8
0
 62
8
370
0
100
AcDbLine
 10
71.12
 20
12.7
 30
0.0
 11
71.12
 21
266.7
 31
0.0
  0
LINE
  5
47
330
17
100
AcDbEntity
  8
0
 62
8
370
0
100
AcDbLine
 10
73.66000000000001
 20
12.7
 30
0.0
 11
73.66000000000001
 21
266.7
 31
0.0
  0
LINE
  5
48
330
17
100
AcDbEntity
  8
0
 62
8
370
0
100
AcDbLine
 10
76.20000000000002
 20
12.7
 30
0.0
 11
76.20000000000002
 21
266.7
 31
0.0
  0
LINE
  5
49
330
17
100
AcDbEntity
  8
0
 62
8
370
0
100
AcDbLine
 10
78.74000000000002
 20
12.7
 30
0.0
 11
78.74000000000002
 21
266.7
 31
0.0
  0
LINE
  5
4A
330
17
100
AcDbEntity
  8
0
 62
8
370
0
100
AcDbLine
 10
81.28000000000003
 20
12.7
 30
0.0
 11
81.28000000000003
 21
266.7
 31
0.0
  0
LINE
  5
4B
330
17
100
AcDbEntity
  8
0
 62
8
370
0
100
AcDbLine
 10
83.82000000000004
 20
12.7
 30
0.0
 11
83.82000000000004
 21
266.7
 31
0.0
  0
LINE
  5
4C
330
17
100
AcDbEntity
  8
0
 62
8
370
0
100
AcDbLine
 10
86.36000000000004
 20
12.7
 30
0.0
 11
86.36000000000004
 21
266.7
 31
0.0
  0
LINE
  5
4D
330
17
100
AcDbEntity
  8
0
 62
8
370
0
100
AcDbLine
 10
88.90000000000005
 20
12.7
 30
0.0
 11
88.90000000000005
 21
266.7
 31
0.0
  0
LINE
  5
4E
330
17
100
AcDbEntity
  8
0
 62
8
370
0
100
AcDbLine
 10
91.44000000000005
 20
12.7
 30
0.0
 11
91.44000000000005
 21
266.7
 31
0.0
  0
LINE
  5
4F
330
17
100
AcDbEntity
  8
0
 62
8
370
0
100
AcDbLine
 10
93.98000000000006
 20
12.7
 30
0.0
 11
93.98000000000006
 21
266.7
 31
0.0
  0
LINE
  5
50
330
17
100
AcDbEntity
  8
0
 62
8
370
0
100
AcDbLine
 10
96.52000000000007
 20
12.7
 30
0.0
 11
96.52000000000007
 21
266.7
 31
0.0
  0
LINE
  5
51
330
17
100
AcDbEntity
  8
0
 62
8
370
0
100
AcDbLine
 10
99.06000000000007
 20
12.7
 30
0.0
 11
99.06000000000007
 21
266.7
 31
0.0
  0
LINE
  5
52
330
17
100
AcDbEntity
  8
0
 62
8
370
0
100
AcDbLine
 10
101.60000000000008
 20
12.7
 30
0.0
 11
101.60000000000008
 21
266.7
 31
0.0
  0
LINE
  5
53
330
17
100
AcDbEntity
  8
0
 62
8
370
0
100
AcDbLine
 10
104.14000000000009
 20
12.7
 30
0.0
 11
104.14000000000009
 21
266.7
 31
0.0
  0
LINE
  5
54
330
17
100
AcDbEntity
  8
0
 62
8
370
0
100
AcDbLine
 10
106.68000000000009
 20
12.7
 30
0.0
 11
106.68000000000009
 21
266.7
 31
0.0
  0
LINE
  5
55
330
17
100
AcDbEntity
  8
0
 62
8
370
0
100
AcDbLine
 10
109.2200000000001
 20
12.7
 30
0.0
 11
109.2200000000001
 21
266.7
 31
0.0
  0
LINE
  5
56
330
17
100
AcDbEntity
  8
0
 62
8
370
0
100
AcDbLine
 10
111.7600000000001
 20
12.7
 30
0.0
 11
111.7600000000001
 21
266.7
 31
0.0
  0
LINE
  5
57
330
17
100
AcDbEntity
  8
0
 62
8
370
0
100
AcDbLine
 10
114.30000000000011
 20
12.7
 30
0.0
 11
114.30000000000011
 21
266.7
 31
0.0
  0
LINE
  5
58
330
17
100
AcDbEntity
  8
0
 62
8
370
0
100
AcDbLine
 10
116.84000000000012
 20
12.7
 30
0.0
 11
116.84000000000012
 21
266.7
 31
0.0
  0
LINE
  5
59
330
17
100
AcDbEntity
  8
0
 62
8
370
0
100
AcDbLine
 10
119.38000000000012
 20
12.7
 30
0.0
 11
119.38000000000012
 21
266.7
 31
0.0
  0
LINE
  5
5A
330
17
100
AcDbEntity
  8
0
 62
8
370
0
100
AcDbLine
 10
121.92000000000013
 20
12.7
 30
0.0
 11
121.92000000000013
 21
266.7
 31
0.0
  0
LINE
  5
5B
330
17
100
AcDbEntity
  8
0
 62
8
370
0
100
AcDbLine
 10
124.46000000000014
 20
12.7
 30
0.0
 11
124.46000000000014
 21
266.7
 31
0.0
  0
LINE
  5
5C
330
17
100
AcDbEntity
  8
0
 62
8
370
0
100
AcDbLine
 10
127.00000000000014
 20
12.7
 30
0.0
 11
127.00000000000014
 21
266.7
 31
0.0
  0
LINE
  5
5D
330
17
100
AcDbEntity
  8
0
 62
8
370
0
100
AcDbLine
 10
129.54000000000013
 20
12.7
 30
0.0
 11
129.54000000000013
 21
266.7
 31
0.0
  0
LINE
  5
5E
330
17
100
AcDbEntity
  8
0
 62
8
370
0
100
AcDbLine
 10
132.08000000000013
 20
12.7
 30
0.0
 11
132.08000000000013
 21
266.7
 31
0.0
  0
LINE
  5
5F
330
17
100
AcDbEntity
  8
0
 62
8
370
0
100
AcDbLine
 10
134.62000000000012
 20
12.7
 30
0.0
 11
134.62000000000012
 21
266.7
 31
0.0
  0
LINE
  5
60
330
17
100
AcDbEntity
  8
0
 62
8
370
0
100
AcDbLine
 10
137.1600000000001
 20
12.7
 30
0.0
 11
137.1600000000001
 21
266.7
 31
0.0
  0
LINE
  5
61
330
17
100
AcDbEntity
  8
0
 62
8
370
0
100
AcDbLine
 10
139.7000000000001
 20
12.7
 30
0.0
 11
139.7000000000001
 21
266.7
 31
0.0
  0
LINE
  5
62
330
17
100
AcDbEntity
  8
0
 62
8
370
0
100
AcDbLine
 10
142.2400000000001
 20
12.7
 30
0.0
 11
142.2400000000001
 21
266.7
 31
0.0
  0
LINE
  5
63
330
17
100
AcDbEntity
  8
0
 62
8
370
0
100
AcDbLine
 10
144.7800000000001
 20
12.7
 30
0.0
 11
144.7800000000001
 21
266.7
 31
0.0
  0
LINE
  5
64
330
17
100
AcDbEntity
  8
0
 62
8
370
0
100
AcDbLine
 10
147.32000000000008
 20
12.7
 30
0.0
 11
147.32000000000008
 21
266.7
 31
0.0
  0
LINE
  5
65
330
17
100
AcDbEntity
  8
0
 62
8
370
0
100
AcDbLine
 10
149.86000000000007
 20
12.7
 30
0.0
 11
149.86000000000007
 21
266.7
 31
0.0
  0
LINE
  5
66
330
17
100
AcDbEntity
  8
0
 62
8
370
0
100
AcDbLine
 10
152.40000000000006
 20
12.7
 30
0.0
 11
152.40000000000006
 21
266.7
 31
0.0
  0
LINE
  5
67
330
17
100
AcDbEntity
  8
0
 62
8
370
0
100
AcDbLine
 10
154.94000000000005
 20
12.7
 30
0.0
 11
154.94000000000005
 21
266.7
 31
0.0
  0
LINE
  5
68
330
17
100
AcDbEntity
  8
0
 62
8
370
0
100
AcDbLine
 10
157.48000000000005
 20
12.7
 30
0.0
 11
157.48000000000005
 21
266.7
 31
0.0
  0
LINE
  5
69
330
17
100
AcDbEntity
  8
0
 62
8
370
0
100
AcDbLine
 10
160.02000000000004
 20
12.7
 30
0.0
 11
160.02000000000004
 21
266.7
 31
0.0
  0
LINE
  5
6A
330
17
100
AcDbEntity
  8
0
 62
8
370
0
100
AcDbLine
 10
162.56000000000003
 20
12.7
 30
0.0
 11
162.56000000000003
 21
266.7
 31
0.0
  0
LINE
  5
6B
330
17
100
AcDbEntity
  8
0
 62
8
370
0
100
AcDbLine
 10
165.10000000000002
 20
12.7
 30
0.0
 11
165.10000000000002
 21
266.7
 31
0.0
  0
LINE
  5
6C
330
17
100
AcDbEntity
  8
0
 62
8
370
0
100
AcDbLine
 10
167.64000000000001
 20
12.7
 30
0.0
 11
167.64000000000001
 21
266.7
 31
0.0
  0
LINE
  5
6D
330
17
100
AcDbEntity
  8
0
 62
8
370
0
100
AcDbLine
 10
170.18
 20
12.7
 30
0.0
 11
170.18
 21
266.7
 31
0.0
  0
LINE
  5
6E
330
17
100
AcDbEntity
  8
0
 62
8
370
0
100
AcDbLine
 10
172.72
 20
12.7
 30
0.0
 11
172.72
 21
266.7
 31
0.0
  0
LINE
  5
6F
330
17
100
AcDbEntity
  8
0
 62
8
370
0
100
AcDbLine
 10
175.26
 20
12.7
 30
0.0
 11
175.26
 21
266.7
 31
0.0
  0
LINE
  5
70
330
17
100
AcDbEntity
  8
0
 62
8
370
0
100
AcDbLine
 10
177.79999999999998
 20
12.7
 30
0.0
 11
177.79999999999998
 21
266.7
 31
0.0
  0
LINE
  5
71
330
17
100
AcDbEntity
  8
0
 62
8
370
0
100
AcDbLine
 10
180.33999999999997
 20
12.7
 30
0.0
 11
180.33999999999997
 21
266.7
 31
0.0
  0
LINE
  5
72
330
17
100
AcDbEntity
  8
0
 62
8
370
0
100
AcDbLine
 10
182.87999999999997
 20
12.7
 30
0.0
 11
182.87999999999997
 21
266.7
 31
0.0
  0
LINE
  5
73
330
17
100
AcDbEntity
  8
0
 62
8
370
0
100
AcDbLine
 10
185.41999999999996
 20
12.7
 30
0.0
 11
185.41999999999996
 21
266.7
 31
0.0
  0
LINE
  5
74
330
17
100
AcDbEntity
  8
0
 62
8
370
0
100
AcDbLine
 10
187.95999999999995
 20
12.7
 30
0.0
 11
187.95999999999995
 21
266.7
 31
0.0
  0
LINE
  5
75
330
17
100
AcDbEntity
  8
0
 62
8
370
0
100
AcDbLine
 10
190.49999999999994
 20
12.7
 30
0.0
 11
190.49999999999994
 21
266.7
 31
0.0
  0
LINE
  5
76
330
17
100
AcDbEntity
  8
0
 62
8
370
0
100
AcDbLine
 10
193.03999999999994
 20
12.7
 30
0.0
 11
193.03999999999994
 21
266.7
 31
0.0
  0
LINE
  5
77
330
17
100
AcDbEntity
  8
0
 62
8
370
0
100
AcDbLine
 10
195.57999999999993
 20
12.7
 30
0.0
 11
195.57999999999993
 21
266.7
 31
0.0
  0
LINE
  5
78
330
17
100
AcDbEntity
  8
0
 62
8
370
0
100
AcDbLine
 10
198.11999999999992
 20
12.7
 30
0.0
 11
198.11999999999992
 21
266.7
 31
0.0
  0
LINE
  5
79
330
17
100
AcDbEntity
  8
0
 62
8
370
0
100
AcDbLine
 10
200.6599999999999
 20
12.7
 30
0.0
 11
200.6599999999999
 21
266.7
 31
0.0
  0
LINE
  5
7A
330
17
100
AcDbEntity
  8
0
 62
8
370
0
100
AcDbLine
 10
203.1999999999999
 20
12.7
 30
0.0
 11
203.1999999999999
 21
266.7
 31
0.0
  0
LINE
  5
7B
330
17
100
AcDbEntity
  8
0
 62
8
370
0
100
AcDbLine
 10
12.7
 20
12.7
 30
0.0
 11
203.2
 21
12.7
 31
0.0
  0
LINE
  5
7C
330
17
100
AcDbEntity
  8
0
 62
8
370
0
100
AcDbLine
 10
12.7
 20
15.239999999999998
 30
0.0
 11
203.2
 21
15.239999999999998
 31
0.0
  0
LINE
  5
7D
330
17
100
AcDbEntity
  8
0
 62
8
370
0
100
AcDbLine
 10
12.7
 20
17.779999999999998
 30
0.0
 11
203.2
 21
17.779999999999998
 31
0.0
  0
LINE
  5
7E
330
17
100
AcDbEntity
  8
0
 62
8
370
0
100
AcDbLine
 10
12.7
 20
20.319999999999997
 30
0.0
 11
203.2
 21
20.319999999999997
 31
0.0
  0
LINE
  5
7F
330
17
100
AcDbEntity
  8
0
 62
8
370
0
100
AcDbLine
 10
12.7
 20
22.859999999999996
 30
0.0
 11
203.2
 21
22.859999999999996
 31
0.0
  0
LINE
  5
80
330
17
100
AcDbEntity
  8
0
 62
8
370
0
100
AcDbLine
 10
12.7
 20
25.399999999999995
 30
0.0
 11
203.2
 21
25.399999999999995
 31
0.0
  0
LINE
  5
81
330
17
100
AcDbEntity
  8
0
 62
8
370
0
100
AcDbLine
 10
12.7
 20
27.939999999999994
 30
0.0
 11
203.2
 21
27.939999999999994
 31
0.0
  0
LINE
  5
82
330
17
100
AcDbEntity
  8
0
 62
8
370
0
100
AcDbLine
 10
12.7
 20
30.479999999999993
 30
0.0
 11
203.2
 21
30.479999999999993
 31
0.0
  0
LINE
  5
83
330
17
100
AcDbEntity
  8
0
 62
8
370
0
100
AcDbLine
 10
12.7
 20
33.019999999999996
 30
0.0
 11
203.2
 21
33.019999999999996
 31
0.0
  0
LINE
  5
84
330
17
100
AcDbEntity
  8
0
 62
8
370
0
100
AcDbLine
 10
12.7
 20
35.559999999999995
 30
0.0
 11
203.2
 21
35.559999999999995
 31
0.0
  0
LINE
  5
85
330
17
100
AcDbEntity
  8
0
 62
8
370
0
100
AcDbLine
 10
12.7
 20
38.099999999999994
 30
0.0
 11
203.2
 21
38.099999999999994
 31
0.0
  0
LINE
  5
86
330
17
100
AcDbEntity
  8
0
 62
8
370
0
100
AcDbLine
 10
12.7
 20
40.63999999999999
 30
0.0
 11
203.2
 21
40.63999999999999
 31
0.0
  0
LINE
  5
87
330
17
100
AcDbEntity
  8
0
 62
8
370
0
100
AcDbLine
 10
12.7
 20
43.17999999999999
 30
0.0
 11
203.2
 21
43.17999999999999
 31
0.0
  0
LINE
  5
88
330
17
100
AcDbEntity
  8
0
 62
8
370
0
100
AcDbLine
 10
12.7
 20
45.71999999999999
 30
0.0
 11
203.2
 21
45.71999999999999
 31
0.0
  0
LINE
  5
89
330
17
100
AcDbEntity
  8
0
 62
8
370
0
100
AcDbLine
 10
12.7
 20
48.25999999999999
 30
0.0
 11
203.2
 21
48.25999999999999
 31
0.0
  0
LINE
  5
8A
330
17
100
AcDbEntity
  8
0
 62
8
370
0
100
AcDbLine
 10
12.7
 20
50.79999999999999
 30
0.0
 11
203.2
 21
50.79999999999999
 31
0.0
  0
LINE
  5
8B
330
17
100
AcDbEntity
  8
0
 62
8
370
0
100
AcDbLine
 10
12.7
 20
53.33999999999999
 30
0.0
 11
203.2
 21
53.33999999999999
 31
0.0
  0
LINE
  5
8C
330
17
100
AcDbEntity
  8
0
 62
8
370
0
100
AcDbLine
 10
12.7
 20
55.87999999999999
 30
0.0
 11
203.2
 21
55.87999999999999
 31
0.0
  0
LINE
  5
8D
330
17
100
AcDbEntity
  8
0
 62
8
370
0
100
AcDbLine
 10
12.7
 20
58.41999999999999
 30
0.0
 11
203.2
 21
58.41999999999999
 31
0.0
  0
LINE
  5
8E
330
17
100
AcDbEntity
  8
0
 62
8
370
0
100
AcDbLine
 10
12.7
 20
60.95999999999999
 30
0.0
 11
203.2
 21
60.95999999999999
 31
0.0
  0
LINE
  5
8F
330
17
100
AcDbEntity
  8
0
 62
8
370
0
100
AcDbLine
 10
12.7
 20
63.499999999999986
 30
0.0
 11
203.2
 21
63.499999999999986
 31
0.0
  0
LINE
  5
90
330
17
100
AcDbEntity
  8
0
 62
8
370
0
100
AcDbLine
 10
12.7
 20
66.03999999999999
 30
0.0
 11
203.2
 21
66.03999999999999
 31
0.0
  0
LINE
  5
91
330
17
100
AcDbEntity
  8
0
 62
8
370
0
100
AcDbLine
 10
12.7
 20
68.58
 30
0.0
 11
203.2
 21
68.58
 31
0.0
  0
LINE
  5
92
330
17
100
AcDbEntity
  8
0
 62
8
370
0
100
AcDbLine
 10
12.7
 20
71.12
 30
0.0
 11
203.2
 21
71.12
 31
0.0
  0
LINE
  5
93
330
17
100
AcDbEntity
  8
0
 62
8
370
0
100
AcDbLine
 10
12.7
 20
73.66000000000001
 30
0.0
 11
203.2
 21
73.66000000000001
 31
0.0
  0
LINE
  5
94
330
17
100
AcDbEntity
  8
0
 62
8
370
0
100
AcDbLine
 10
12.7
 20
76.20000000000002
 30
0.0
 11
203.2
 21
76.20000000000002
 31
0.0
  0
LINE
  5
95
330
17
100
AcDbEntity
  8
0
 62
8
370
0
100
AcDbLine
 10
12.7
 20
78.74000000000002
 30
0.0
 11
203.2
 21
78.74000000000002
 31
0.0
  0
LINE
  5
96
330
17
100
AcDbEntity
  8
0
 62
8
370
0
100
AcDbLine
 10
12.7
 20
81.28000000000003
 30
0.0
 11
203.2
 21
81.28000000000003
 31
0.0
  0
LINE
  5
97
330
17
100
AcDbEntity
  8
0
 62
8
370
0
100
AcDbLine
 10
12.7
 20
83.82000000000004
 30
0.0
 11
203.2
 21
83.82000000000004
 31
0.0
  0
LINE
  5
98
330
17
100
AcDbEntity
  8
0
 62
8
370
0
100
AcDbLine
 10
12.7
 20
86.36000000000004
 30
0.0
 11
203.2
 21
86.36000000000004
 31
0.0
  0
LINE
  5
99
330
17
100
AcDbEntity
  8
0
 62
8
370
0
100
AcDbLine
 10
12.7
 20
88.90000000000005
 30
0.0
 11
203.2
 21
88.90000000000005
 31
0.0
  0
LINE
  5
9A
330
17
100
AcDbEntity
  8
0
 62
8
370
0
100
AcDbLine
 10
12.7
 20
91.44000000000005
 30
0.0
 11
203.2
 21
91.44000000000005
 31
0.0
  0
LINE
  5
9B
330
17
100
AcDbEntity
  8
0
 62
8
370
0
100
AcDbLine
 10
12.7
 20
93.98000000000006
 30
0.0
 11
203.2
 21
93.98000000000006
 31
0.0
  0
LINE
  5
9C
330
17
100
AcDbEntity
  8
0
 62
8
370
0
100
AcDbLine
 10
12.7
 20
96.52000000000007
 30
0.0
 11
203.2
 21
96.52000000000007
 31
0.0
  0
LINE
  5
9D
330
17
100
AcDbEntity
  8
0
 62
8
370
0
100
AcDbLine
 10
12.7
 20
99.06000000000007
 30
0.0
 11
203.2
 21
99.06000000000007
 31
0.0
  0
LINE
  5
9E
330
17
100
AcDbEntity
  8
0
 62
8
370
0
100
AcDbLine
 10
12.7
 20
101.60000000000008
 30
0.0
 11
203.2
 21
101.60000000000008
 31
0.0
  0
LINE
  5
9F
330
17
100
AcDbEntity
  8
0
 62
8
370
0
100
AcDbLine
 10
12.7
 20
104.14000000000009
 30
0.0
 11
203.2
 21
104.14000000000009
 31
0.0
  0
LINE
  5
A0
330
17
100
AcDbEntity
  8
0
 62
8
370
0
100
AcDbLine
 10
12.7
 20
106.68000000000009
 30
0.0
 11
203.2
 21
106.68000000000009
 31
0.0
  0
LINE
  5
A1
330
17
100
AcDbEntity
  8
0
 62
8
370
0
100
AcDbLine
 10
12.7
 20
109.2200000000001
 30
0.0
 11
203.2
 21
109.2200000000001
 31
0.0
  0
LINE
  5
A2
330
17
100
AcDbEntity
  8
0
 62
8
370
0
100
AcDbLine
 10
12.7
 20
111.7600000000001
 30
0.0
 11
203.2
 21
111.7600000000001
 31
0.0
  0
LINE
  5
A3
330
17
100
AcDbEntity
  8
0
 62
8
370
0
100
AcDbLine
 10
12.7
 20
114.30000000000011
 30
0.0
 11
203.2
 21
114.30000000000011
 31
0.0
  0
LINE
  5
A4
330
17
100
AcDbEntity
  8
0
 62
8
370
0
100
AcDbLine
 10
12.7
 20
116.84000000000012
 30
0.0
 11
203.2
 21
116.84000000000012
 31
0.0
  0
LINE
  5
A5
330
17
100
AcDbEntity
  8
0
 62
8
370
0
100
AcDbLine
 10
12.7
 20
119.38000000000012
 30
0.0
 11
203.2
 21
119.38000000000012
 31
0.0
  0
LINE
  5
A6
330
17
100
AcDbEntity
  8
0
 62
8
370
0
100
AcDbLine
 10
12.7
 20
121.92000000000013
 30
0.0
 11
203.2
 21
121.92000000000013
 31
0.0
  0
LINE
  5
A7
330
17
100
AcDbEntity
  8
0
 62
8
370
0
100
AcDbLine
 10
12.7
 20
124.46000000000014
 30
0.0
 11
203.2
 21
124.46000000000014
 31
0.0
  0
LINE
  5
A8
330
17
100
AcDbEntity
  8
0
 62
8
370
0
100
AcDbLine
 10
12.7
 20
127.00000000000014
 30
0.0
 11
203.2
 21
127.00000000000014
 31
0.0
  0
LINE
  5
A9
330
17
100
AcDbEntity
  8
0
 62
8
370
0
100
AcDbLine
 10
12.7
 20
129.54000000000013
 30
0.0
 11
203.2
 21
129.54000000000013
 31
0.0
  0
LINE
  5
AA
330
17
100
AcDbEntity
  8
0
 62
8
370
0
100
AcDbLine
 10
12.7
 20
132.08000000000013
 30
0.0
 11
203.2
 21
132.08000000000013
 31
0.0
  0
LINE
  5
AB
330
17
100
AcDbEntity
  8
0
 62
8
370
0
100
AcDbLine
 10
12.7
 20
134.62000000000012
 30
0.0
 11
203.2
 21
134.62000000000012
 31
0.0
  0
LINE
  5
AC
330
17
100
AcDbEntity
  8
0
 62
8
370
0
100
AcDbLine
 10
12.7
 20
137.1600000000001
 30
0.0
 11
203.2
 21
137.1600000000001
 31
0.0
  0
LINE
  5
AD
330
17
100
AcDbEntity
  8
0
 62
8
370
0
100
AcDbLine
 10
12.7
 20
139.7000000000001
 30
0.0
 11
203.2
 21
139.7000000000001
 31
0.0
  0
LINE
  5
AE
330
17
100
AcDbEntity
  8
0
 62
8
370
0
100
AcDbLine
 10
12.7
 20
142.2400000000001
 30
0.0
 11
203.2
 21
142.2400000000001
 31
0.0
  0
LINE
  5
AF
330
17
100
AcDbEntity
  8
0
 62
8
370
0
100
AcDbLine
 10
12.7
 20
144.7800000000001
 30
0.0
 11
203.2
 21
144.7800000000001
 31
0.0
  0
LINE
  5
B0
330
17
100
AcDbEntity
  8
0
 62
8
370
0
100
AcDbLine
 10
12.7
 20
147.32000000000008
 30
0.0
 11
203.2
 21
147.32000000000008
 31
0.0
  0
LINE
  5
B1
330
17
100
AcDbEntity
  8
0
 62
8
370
0
100
AcDbLine
 10
12.7
 20
149.86000000000007
 30
0.0
 11
203.2
 21
149.86000000000007
 31
0.0
  0
LINE
  5
B2
330
17
100
AcDbEntity
  8
0
 62
8
370
0
100
AcDbLine
 10
12.7
 20
152.40000000000006
 30
0.0
 11
203.2
 21
152.40000000000006
 31
0.0
  0
LINE
  5
B3
330
17
100
AcDbEntity
  8
0
 62
8
370
0
100
AcDbLine
 10
12.7
 20
154.94000000000005
 30
0.0
 11
203.2
 21
154.94000000000005
 31
0.0
  0
LINE
  5
B4
330
17
100
AcDbEntity
  8
0
 62
8
370
0
100
AcDbLine
 10
12.7
 20
157.48000000000005
 30
0.0
 11
203.2
 21
157.48000000000005
 31
0.0
  0
LINE
  5
B5
330
17
100
AcDbEntity
  8
0
 62
8
370
0
100
AcDbLine
 10
12.7
 20
160.02000000000004
 30
0.0
 11
203.2
 21
160.02000000000004
 31
0.0
  0
LINE
  5
B6
330
17
100
AcDbEntity
  8
0
 62
8
370
0
100
AcDbLine
 10
12.7
 20
162.56000000000003
 30
0.0
 11
203.2
 21
162.56000000000003
 31
0.0
  0
LINE
  5
B7
330
17
100
AcDbEntity
  8
0
 62
8
370
0
100
AcDbLine
 10
12.7
 20
165.10000000000002
 30
0.0
 11
203.2
 21
165.10000000000002
 31
0.0
  0
LINE
  5
B8
330
17
100
AcDbEntity
  8
0
 62
8
370
0
100
AcDbLine
 10
12.7
 20
167.64000000000001
 30
0.0
 11
203.2
 21
167.64000000000001
 31
0.0
  0
LINE
  5
B9
330
17
100
AcDbEntity
  8
0
 62
8
370
0
100
AcDbLine
 10
12.7
 20
170.18
 30
0.0
 11
203.2
 21
170.18
 31
0.0
  0
LINE
  5
BA
330
17
100
AcDbEntity
  8
0
 62
8
370
0
100
AcDbLine
 10
12.7
 20
172.72
 30
0.0
 11
203.2
 21
172.72
 31
0.0
  0
LINE
  5
BB
330
17
100
AcDbEntity
  8
0
 62
8
370
0
100
AcDbLine
 10
12.7
 20
175.26
 30
0.0
 11
203.2
 21
175.26
 31
0.0
  0
LINE
  5
BC
330
17
100
AcDbEntity
  8
0
 62
8
370
0
100
AcDbLine
 10
12.7
 20
177.79999999999998
 30
0.0
 11
203.2
 21
177.79999999999998
 31
0.0
  0
LINE
  5
BD
330
17
100
AcDbEntity
  8
0
 62
8
370
0
100
AcDbLine
 10
12.7
 20
180.33999999999997
 30
0.0
 11
203.2
 21
180.33999999999997
 31
0.0
  0
LINE
  5
BE
330
17
100
AcDbEntity
  8
0
 62
8
370
0
100
AcDbLine
 10
12.7
 20
182.87999999999997
 30
0.0
 11
203.2
 21
182.87999999999997
 31
0.0
  0
LINE
  5
BF
330
17
100
AcDbEntity
  8
0
 62
8
370
0
100
AcDbLine
 10
12.7
 20
185.41999999999996
 30
0.0
 11
203.2
 21
185.41999999999996
 31
0.0
  0
LINE
  5
C0
330
17
100
AcDbEntity
  8
0
 62
8
370
0
100
AcDbLine
 10
12.7
 20
187.95999999999995
 30
0.0
 11
203.2
 21
187.95999999999995
 31
0.0
  0
LINE
  5
C1
330
17
100
AcDbEntity
  8
0
 62
8
370
0
100
AcDbLine
 10
12.7
 20
190.49999999999994
 30
0.0
 11
203.2
 21
190.49999999999994
 31
0.0
  0
LINE
  5
C2
330
17
100
AcDbEntity
  8
0
 62
8
370
0
100
AcDbLine
 10
12.7
 20
193.03999999999994
 30
0.0
 11
203.2
 21
193.03999999999994
 31
0.0
  0
LINE
  5
C3
330
17
100
AcDbEntity
  8
0
 62
8
370
0
100
AcDbLine
 10
12.7
 20
195.57999999999993
 30
0.0
 11
203.2
 21
195.57999999999993
 31
0.0
  0
LINE
  5
C4
330
17
100
AcDbEntity
  8
0
 62
8
370
0
100
AcDbLine
 10
12.7
 20
198.11999999999992
 30
0.0
 11
203.2
 21
198.11999999999992
 31
0.0
  0
LINE
  5
C5
330
17
100
AcDbEntity
  8
0
 62
8
370
0
100
AcDbLine
 10
12.7
 20
200.6599999999999
 30
0.0
 11
203.2
 21
200.6599999999999
 31
0.0
  0
LINE
  5
C6
330
17
100
AcDbEntity
  8
0
 62
8
370
0
100
AcDbLine
 10
12.7
 20
203.1999999999999
 30
0.0
 11
203.2
 21
203.1999999999999
 31
0.0
  0
LINE
  5
C7
330
17
100
AcDbEntity
  8
0
 62
8
370
0
100
AcDbLine
 10
12.7
 20
205.7399999999999
 30
0.0
 11
203.2
 21
205.7399999999999
 31
0.0
  0
LINE
  5
C8
330
17
100
AcDbEntity
  8
0
 62
8
370
0
100
AcDbLine
 10
12.7
 20
208.2799999999999
 30
0.0
 11
203.2
 21
208.2799999999999
 31
0.0
  0
LINE
  5
C9
330
17
100
AcDbEntity
  8
0
 62
8
370
0
100
AcDbLine
 10
12.7
 20
210.81999999999988
 30
0.0
 11
203.2
 21
210.81999999999988
 31
0.0
  0
LINE
  5
CA
330
17
100
AcDbEntity
  8
0
 62
8
370
0
100
AcDbLine
 10
12.7
 20
213.35999999999987
 30
0.0
 11
203.2
 21
213.35999999999987
 31
0.0
  0
LINE
  5
CB
330
17
100
AcDbEntity
  8
0
 62
8
370
0
100
AcDbLine
 10
12.7
 20
215.89999999999986
 30
0.0
 11
203.2
 21
215.89999999999986
 31
0.0
  0
LINE
  5
CC
330
17
100
AcDbEntity
  8
0
 62
8
370
0
100
AcDbLine
 10
12.7
 20
218.43999999999986
 30
0.0
 11
203.2
 21
218.43999999999986
 31
0.0
  0
LINE
  5
CD
330
17
100
AcDbEntity
  8
0
 62
8
370
0
100
AcDbLine
 10
12.7
 20
220.97999999999985
 30
0.0
 11
203.2
 21
220.97999999999985
 31
0.0
  0
LINE
  5
CE
330
17
100
AcDbEntity
  8
0
 62
8
370
0
100
AcDbLine
 10
12.7
 20
223.51999999999984
 30
0.0
 11
203.2
 21
223.51999999999984
 31
0.0
  0
LINE
  5
CF
330
17
100
AcDbEntity
  8
0
 62
8
370
0
100
AcDbLine
 10
12.7
 20
226.05999999999983
 30
0.0
 11
203.2
 21
226.05999999999983
 31
0.0
  0
LINE
  5
D0
330
17
100
AcDbEntity
  8
0
 62
8
370
0
100
AcDbLine
 10
12.7
 20
228.59999999999982
 30
0.0
 11
203.2
 21
228.59999999999982
 31
0.0
  0
LINE
  5
D1
330
17
100
AcDbEntity
  8
0
 62
8
370
0
100
AcDbLine
 10
12.7
 20
231.13999999999982
 30
0.0
 11
203.2
 21
231.13999999999982
 31
0.0
  0
LINE
  5
D2
330
17
100
AcDbEntity
  8
0
 62
8
370
0
100
AcDbLine
 10
12.7
 20
233.6799999999998
 30
0.0
 11
203.2
 21
233.6799999999998
 31
0.0
  0
LINE
  5
D3
330
17
100
AcDbEntity
  8
0
 62
8
370
0
100
AcDbLine
 10
12.7
 20
236.2199999999998
 30
0.0
 11
203.2
 21
236.2199999999998
 31
0.0
  0
LINE
  5
D4
330
17
100
AcDbEntity
  8
0
 62
8
370
0
100
AcDbLine
 10
12.7
 20
238.7599999999998
 30
0.0
 11
203.2
 21
238.7599999999998
 31
0.0
  0
LINE
  5
D5
330
17
100
AcDbEntity
  8
0
 62
8
370
0
100
AcDbLine
 10
12.7
 20
241.29999999999978
 30
0.0
 11
203.2
 21
241.29999999999978
 31
0.0
  0
LINE
  5
D6
330
17
100
AcDbEntity
  8
0
 62
8
370
0
100
AcDbLine
 10
12.7
 20
243.83999999999978
 30
0.0
 11
203.2
 21
243.83999999999978
 31
0.0
  0
LINE
  5
D7
330
17
100
AcDbEntity
  8
0
 62
8
370
0
100
AcDbLine
 10
12.7
 20
246.37999999999977
 30
0.0
 11
203.2
 21
246.37999999999977
 31
0.0
  0
LINE
  5
D8
330
17
100
AcDbEntity
  8
0
 62
8
370
0
100
AcDbLine
 10
12.7
 20
248.91999999999976
 30
0.0
 11
203.2
 21
248.91999999999976
 31
0.0
  0
LINE
  5
D9
330
17
100
AcDbEntity
  8
0
 62
8
370
0
100
AcDbLine
 10
12.7
 20
251.45999999999975
 30
0.0
 11
203.2
 21
251.45999999999975
 31
0.0
  0
LINE
  5
DA
330
17
100
AcDbEntity
  8
0
 62
8
370
0
100
AcDbLine
 10
12.7
 20
253.99999999999974
 30
0.0
 11
203.2
 21
253.99999999999974
 31
0.0
  0
LINE
  5
DB
330
17
100
AcDbEntity
  8
0
 62
8
370
0
100
AcDbLine
 10
12.7
 20
256.53999999999974
 30
0.0
 11
203.2
 21
256.53999999999974
 31
0.0
  0
LINE
  5
DC
330
17
100
AcDbEntity
  8
0
 62
8
370
0
100
AcDbLine
 10
12.7
 20
259.07999999999976
 30
0.0
 11
203.2
 21
259.07999999999976
 31
0.0
  0
LINE
  5
DD
330
17
100
AcDbEntity
  8
0
 62
8
370
0
100
AcDbLine
 10
12.7
 20
261.6199999999998
 30
0.0
 11
203.2
 21
261.6199999999998
 31
0.0
  0
LINE
  5
DE
330
17
100
AcDbEntity
  8
0
 62
8
370
0
100
AcDbLine
 10
12.7
 20
264.1599999999998
 30
0.0
 11
203.2
 21
264.1599999999998
 31
0.0
  0
LINE
  5
DF
330
17
100
AcDbEntity
  8
0
 62
8
370
0
100
AcDbLine
 10
12.7
 20
266.6999999999998
 30
0.0
 11
203.2
 21
266.6999999999998
 31
0.0
  0
LWPOLYLINE
  5
E0
330
17
100
AcDbEntity
  8
0
 62
0
370
0
100
AcDbPolyline
 90
5
 70
0
 10
22.7
 20
22.7
 10
193.2
 20
22.7
 10
193.2
 20
167.79999999999998
 10
22.7
 20
167.79999999999998
 10
22.7
 20
22.7
  0
TEXT
  5
E1
330
17
100
AcDbEntity
  8
0
 62
1
100
AcDbText
 10
24.7
 20
20.7
 30
0.0
 40
3.2
  1
ROAD: Aspen Way (Private)
100
AcDbText
  0
LINE
  5
E2
330
17
100
AcDbEntity
  8
0
  6
DASHED
 62
5
370
0
100
AcDbLine
 10
24.7
 20
18.7
 30
0.0
 11
191.2
 21
18.7
 31
0.0
  0
LWPOLYLINE
  5
E3
330
17
100
AcDbEntity
  8
0
 62
0
370
0
100
AcDbPolyline
 90
5
 70
0
 10
27.7
 20
47.7
 10
45.7
 20
47.7
 10
45.7
 20
71.7
 10
27.7
 20
71.7
 10
27.7
 20
47.7
  0
LINE
  5
E4
330
17
100
AcDbEntity
  8
0
 62
0
370
0
100
AcDbLine
 10
28.0
 20
47.7
 30
0.0
 11
22.0
 21
71.7
 31
0.0
  0
LINE
  5
E5
330
17
100
AcDbEntity
  8
0
 62
0
370
0
100
AcDbLine
 10
28.3
 20
47.7
 30
0.0
 11
22.3
 21
71.7
 31
0.0
  0
LINE
  5
E6
330
17
100
AcDbEntity
  8
0
 62
0
370
0
100
AcDbLine
 10
28.599999999999998
 20
47.7
 30
0.0
 11
22.599999999999998
 21
71.7
 31
0.0
  0
LINE
  5
E7
330
17
100
AcDbEntity
  8
0
 62
0
370
0
100
AcDbLine
 10
28.9
 20
47.7
 30
0.0
 11
22.9
 21
71.7
 31
0.0
  0
LINE
  5
E8
330
17
100
AcDbEntity
  8
0
 62
0
370
0
100
AcDbLine
 10
29.2
 20
47.7
 30
0.0
 11
23.2
 21
71.7
 31
0.0
  0
LINE
  5
E9
330
17
100
AcDbEntity
  8
0
 62
0
370
0
100
AcDbLine
 10
29.5
 20
47.7
 30
0.0
 11
23.5
 21
71.7
 31
0.0
  0
LINE
  5
EA
330
17
100
AcDbEntity
  8
0
 62
0
370
0
100
AcDbLine
 10
29.8
 20
47.7
 30
0.0
 11
23.8
 21
71.7
 31
0.0
  0
LINE
  5
EB
330
17
100
AcDbEntity
  8
0
 62
0
370
0
100
AcDbLine
 10
30.099999999999998
 20
47.7
 30
0.0
 11
24.099999999999998
 21
71.7
 31
0.0
  0
LINE
  5
EC
330
17
100
AcDbEntity
  8
0
 62
0
370
0
100
AcDbLine
 10
30.4
 20
47.7
 30
0.0
 11
24.4
 21
71.7
 31
0.0
  0
LINE
  5
ED
330
17
100
AcDbEntity
  8
0
 62
0
370
0
100
AcDbLine
 10
30.7
 20
47.7
 30
0.0
 11
24.7
 21
71.7
 31
0.0
  0
LINE
  5
EE
330
17
100
AcDbEntity
  8
0
 62
0
370
0
100
AcDbLine
 10
31.0
 20
47.7
 30
0.0
 11
25.0
 21
71.7
 31
0.0
  0
LINE
  5
EF
330
17
100
AcDbEntity
  8
0
 62
0
370
0
100
AcDbLine
 10
31.299999999999997
 20
47.7
 30
0.0
 11
25.299999999999997
 21
71.7
 31
0.0
  0
LINE
  5
F0
330
17
100
AcDbEntity
  8
0
 62
0
370
0
100
AcDbLine
 10
31.599999999999998
 20
47.7
 30
0.0
 11
25.599999999999998
 21
71.7
 31
0.0
  0
LINE
  5
F1
330
17
100
AcDbEntity
  8
0
 62
0
370
0
100
AcDbLine
 10
31.9
 20
47.7
 30
0.0
 11
25.9
 21
71.7
 31
0.0
  0
LINE
  5
F2
330
17
100
AcDbEntity
  8
0
 62
0
370
0
100
AcDbLine
 10
32.2
 20
47.7
 30
0.0
 11
26.200000000000003
 21
71.7
 31
0.0
  0
LINE
  5
F3
330
17
100
AcDbEntity
  8
0
 62
0
370
0
100
AcDbLine
 10
32.5
 20
47.7
 30
0.0
 11
26.5
 21
71.7
 31
0.0
  0
LINE
  5
F4
330
17
100
AcDbEntity
  8
0
 62
0
370
0
100
AcDbLine
 10
32.8
 20
47.7
 30
0.0
 11
26.799999999999997
 21
71.7
 31
0.0
  0
LINE
  5
F5
330
17
100
AcDbEntity
  8
0
 62
0
370
0
100
AcDbLine
 10
33.1
 20
47.7
 30
0.0
 11
27.1
 21
71.7
 31
0.0
  0
LINE
  5
F6
330
17
100
AcDbEntity
  8
0
 62
0
370
0
100
AcDbLine
 10
33.4
 20
47.7
 30
0.0
 11
27.4
 21
71.7
 31
0.0
  0
LINE
  5
F7
330
17
100
AcDbEntity
  8
0
 62
0
370
0
100
AcDbLine
 10
33.7
 20
47.7
 30
0.0
 11
27.700000000000003
 21
71.7
 31
0.0
  0
LINE
  5
F8
330
17
100
AcDbEntity
  8
0
 62
0
370
0
100
AcDbLine
 10
34.0
 20
47.7
 30
0.0
 11
28.0
 21
71.7
 31
0.0
  0
LINE
  5
F9
330
17
100
AcDbEntity
  8
0
 62
0
370
0
100
AcDbLine
 10
34.3
 20
47.7
 30
0.0
 11
28.299999999999997
 21
71.7
 31
0.0
  0
LINE
  5
FA
330
17
100
AcDbEntity
  8
0
 62
0
370
0
100
AcDbLine
 10
34.6
 20
47.7
 30
0.0
 11
28.6
 21
71.7
 31
0.0
  0
LINE
  5
FB
330
17
100
AcDbEntity
  8
0
 62
0
370
0
100
AcDbLine
 10
34.9
 20
47.7
 30
0.0
 11
28.9
 21
71.7
 31
0.0
  0
LINE
  5
FC
330
17
100
AcDbEntity
  8
0
 62
0
370
0
100
AcDbLine
 10
35.2
 20
47.7
 30
0.0
 11
29.200000000000003
 21
71.7
 31
0.0
  0
LINE
  5
FD
330
17
100
AcDbEntity
  8
0
 62
0
370
0
100
AcDbLine
 10
35.5
 20
47.7
 30
0.0
 11
29.5
 21
71.7
 31
0.0
  0
LINE
  5
FE
330
17
100
AcDbEntity
  8
0
 62
0
370
0
100
AcDbLine
 10
35.8
 20
47.7
 30
0.0
 11
29.799999999999997
 21
71.7
 31
0.0
  0
LINE
  5
FF
330
17
100
AcDbEntity
  8
0
 62
0
370
0
100
AcDbLine
 10
36.1
 20
47.7
 30
0.0
 11
30.1
 21
71.7
 31
0.0
  0
LINE
  5
100
330
17
100
AcDbEntity
  8
0
 62
0
370
0
100
AcDbLine
 10
36.4
 20
47.7
 30
0.0
 11
30.4
 21
71.7
 31
0.0
  0
LINE
  5
101
330
17
100
AcDbEntity
  8
0
 62
0
370
0
100
AcDbLine
 10
36.7
 20
47.7
 30
0.0
 11
30.700000000000003
 21
71.7
 31
0.0
  0
LINE
  5
102
330
17
100
AcDbEntity
  8
0
 62
0
370
0
100
AcDbLine
 10
37.0
 20
47.7
 30
0.0
 11
31.0
 21
71.7
 31
0.0
  0
LINE
  5
103
330
17
100
AcDbEntity
  8
0
 62
0
370
0
100
AcDbLine
 10
37.3
 20
47.7
 30
0.0
 11
31.299999999999997
 21
71.7
 31
0.0
  0
LINE
  5
104
330
17
100
AcDbEntity
  8
0
 62
0
370
0
100
AcDbLine
 10
37.6
 20
47.7
 30
0.0
 11
31.6
 21
71.7
 31
0.0
  0
LINE
  5
105
330
17
100
AcDbEntity
  8
0
 62
0
370
0
100
AcDbLine
 10
37.9
 20
47.7
 30
0.0
 11
31.9
 21
71.7
 31
0.0
  0
LINE
  5
106
330
17
100
AcDbEntity
  8
0
 62
0
370
0
100
AcDbLine
 10
38.2
 20
47.7
 30
0.0
 11
32.2
 21
71.7
 31
0.0
  0
LINE
  5
107
330
17
100
AcDbEntity
  8
0
 62
0
370
0
100
AcDbLine
 10
38.5
 20
47.7
 30
0.0
 11
32.5
 21
71.7
 31
0.0
  0
LINE
  5
108
330
17
100
AcDbEntity
  8
0
 62
0
370
0
100
AcDbLine
 10
38.8
 20
47.7
 30
0.0
 11
32.8
 21
71.7
 31
0.0
  0
LINE
  5
109
330
17
100
AcDbEntity
  8
0
 62
0
370
0
100
AcDbLine
 10
39.1
 20
47.7
 30
0.0
 11
33.1
 21
71.7
 31
0.0
  0
LINE
  5
10A
330
17
100
AcDbEntity
  8
0
 62
0
370
0
100
AcDbLine
 10
39.4
 20
47.7
 30
0.0
 11
33.4
 21
71.7
 31
0.0
  0
LINE
  5
10B
330
17
100
AcDbEntity
  8
0
 62
0
370
0
100
AcDbLine
 10
39.7
 20
47.7
 30
0.0
 11
33.7
 21
71.7
 31
0.0
  0
LINE
  5
10C
330
17
100
AcDbEntity
  8
0
 62
0
370
0
100
AcDbLine
 10
40.0
 20
47.7
 30
0.0
 11
34.0
 21
71.7
 31
0.0
  0
LINE
  5
10D
330
17
100
AcDbEntity
  8
0
 62
0
370
0
100
AcDbLine
 10
40.3
 20
47.7
 30
0.0
 11
34.3
 21
71.7
 31
0.0
  0
LINE
  5
10E
330
17
100
AcDbEntity
  8
0
 62
0
370
0
100
AcDbLine
 10
40.6
 20
47.7
 30
0.0
 11
34.6
 21
71.7
 31
0.0
  0
LINE
  5
10F
330
17
100
AcDbEntity
  8
0
 62
0
370
0
100
AcDbLine
 10
40.9
 20
47.7
 30
0.0
 11
34.9
 21
71.7
 31
0.0
  0
LINE
  5
110
330
17
100
AcDbEntity
  8
0
 62
0
370
0
100
AcDbLine
 10
41.2
 20
47.7
 30
0.0
 11
35.2
 21
71.7
 31
0.0
  0
LINE
  5
111
330
17
100
AcDbEntity
  8
0
 62
0
370
0
100
AcDbLine
 10
41.5
 20
47.7
 30
0.0
 11
35.5
 21
71.7
 31
0.0
  0
LINE
  5
112
330
17
100
AcDbEntity
  8
0
 62
0
370
0
100
AcDbLine
 10
41.8
 20
47.7
 30
0.0
 11
35.8
 21
71.7
 31
0.0
  0
LINE
  5
113
330
17
100
AcDbEntity
  8
0
 62
0
370
0
100
AcDbLine
 10
42.099999999999994
 20
47.7
 30
0.0
 11
36.099999999999994
 21
71.7
 31
0.0
  0
LINE
  5
114
330
17
100
AcDbEntity
  8
0
 62
0
370
0
100
AcDbLine
 10
42.4
 20
47.7
 30
0.0
 11
36.4
 21
71.7
 31
0.0
  0
LINE
  5
115
330
17
100
AcDbEntity
  8
0
 62
0
370
0
100
AcDbLine
 10
42.7
 20
47.7
 30
0.0
 11
36.7
 21
71.7
 31
0.0
  0
LINE
  5
116
330
17
100
AcDbEntity
  8
0
 62
0
370
0
100
AcDbLine
 10
43.0
 20
47.7
 30
0.0
 11
37.0
 21
71.7
 31
0.0
  0
LINE
  5
117
330
17
100
AcDbEntity
  8
0
 62
0
370
0
100
AcDbLine
 10
43.3
 20
47.7
 30
0.0
 11
37.3
 21
71.7
 31
0.0
  0
LINE
  5
118
330
17
100
AcDbEntity
  8
0
 62
0
370
0
100
AcDbLine
 10
43.599999999999994
 20
47.7
 30
0.0
 11
37.599999999999994
 21
71.7
 31
0.0
  0
LINE
  5
119
330
17
100
AcDbEntity
  8
0
 62
0
370
0
100
AcDbLine
 10
43.9
 20
47.7
 30
0.0
 11
37.9
 21
71.7
 31
0.0
  0
LINE
  5
11A
330
17
100
AcDbEntity
  8
0
 62
0
370
0
100
AcDbLine
 10
44.2
 20
47.7
 30
0.0
 11
38.2
 21
71.7
 31
0.0
  0
LINE
  5
11B
330
17
100
AcDbEntity
  8
0
 62
0
370
0
100
AcDbLine
 10
44.5
 20
47.7
 30
0.0
 11
38.5
 21
71.7
 31
0.0
  0
LINE
  5
11C
330
17
100
AcDbEntity
  8
0
 62
0
370
0
100
AcDbLine
 10
44.8
 20
47.7
 30
0.0
 11
38.8
 21
71.7
 31
0.0
  0
LINE
  5
11D
330
17
100
AcDbEntity
  8
0
 62
0
370
0
100
AcDbLine
 10
45.099999999999994
 20
47.7
 30
0.0
 11
39.099999999999994
 21
71.7
 31
0.0
  0
LINE
  5
11E
330
17
100
AcDbEntity
  8
0
 62
0
370
0
100
AcDbLine
 10
45.4
 20
47.7
 30
0.0
 11
39.4
 21
71.7
 31
0.0
  0
LINE
  5
11F
330
17
100
AcDbEntity
  8
0
 62
0
370
0
100
AcDbLine
 10
45.7
 20
47.7
 30
0.0
 11
39.7
 21
71.7
 31
0.0
  0
LINE
  5
120
330
17
100
AcDbEntity
  8
0
 62
0
370
0
100
AcDbLine
 10
46.0
 20
47.7
 30
0.0
 11
40.0
 21
71.7
 31
0.0
  0
LINE
  5
121
330
17
100
AcDbEntity
  8
0
 62
0
370
0
100
AcDbLine
 10
46.3
 20
47.7
 30
0.0
 11
40.3
 21
71.7
 31
0.0
  0
LINE
  5
122
330
17
100
AcDbEntity
  8
0
 62
0
370
0
100
AcDbLine
 10
46.599999999999994
 20
47.7
 30
0.0
 11
40.599999999999994
 21
71.7
 31
0.0
  0
LINE
  5
123
330
17
100
AcDbEntity
  8
0
 62
0
370
0
100
AcDbLine
 10
46.9
 20
47.7
 30
0.0
 11
40.9
 21
71.7
 31
0.0
  0
LINE
  5
124
330
17
100
AcDbEntity
  8
0
 62
0
370
0
100
AcDbLine
 10
47.2
 20
47.7
 30
0.0
 11
41.2
 21
71.7
 31
0.0
  0
LINE
  5
125
330
17
100
AcDbEntity
  8
0
 62
0
370
0
100
AcDbLine
 10
47.5
 20
47.7
 30
0.0
 11
41.5
 21
71.7
 31
0.0
  0
LINE
  5
126
330
17
100
AcDbEntity
  8
0
 62
0
370
0
100
AcDbLine
 10
47.8
 20
47.7
 30
0.0
 11
41.8
 21
71.7
 31
0.0
  0
LINE
  5
127
330
17
100
AcDbEntity
  8
0
 62
0
370
0
100
AcDbLine
 10
48.099999999999994
 20
47.7
 30
0.0
 11
42.099999999999994
 21
71.7
 31
0.0
  0
LINE
  5
128
330
17
100
AcDbEntity
  8
0
 62
0
370
0
100
AcDbLine
 10
48.4
 20
47.7
 30
0.0
 11
42.4
 21
71.7
 31
0.0
  0
LINE
  5
129
330
17
100
AcDbEntity
  8
0
 62
0
370
0
100
AcDbLine
 10
48.7
 20
47.7
 30
0.0
 11
42.7
 21
71.7
 31
0.0
  0
LINE
  5
12A
330
17
100
AcDbEntity
  8
0
 62
0
370
0
100
AcDbLine
 10
49.0
 20
47.7
 30
0.0
 11
43.0
 21
71.7
 31
0.0
  0
LINE
  5
12B
330
17
100
AcDbEntity
  8
0
 62
0
370
0
100
AcDbLine
 10
49.3
 20
47.7
 30
0.0
 11
43.3
 21
71.7
 31
0.0
  0
LINE
  5
12C
330
17
100
AcDbEntity
  8
0
 62
0
370
0
100
AcDbLine
 10
49.599999999999994
 20
47.7
 30
0.0
 11
43.599999999999994
 21
71.7
 31
0.0
  0
LINE
  5
12D
330
17
100
AcDbEntity
  8
0
 62
0
370
0
100
AcDbLine
 10
49.9
 20
47.7
 30
0.0
 11
43.9
 21
71.7
 31
0.0
  0
LINE
  5
12E
330
17
100
AcDbEntity
  8
0
 62
0
370
0
100
AcDbLine
 10
50.2
 20
47.7
 30
0.0
 11
44.2
 21
71.7
 31
0.0
  0
LINE
  5
12F
330
17
100
AcDbEntity
  8
0
 62
0
370
0
100
AcDbLine
 10
50.5
 20
47.7
 30
0.0
 11
44.5
 21
71.7
 31
0.0
  0
LINE
  5
130
330
17
100
AcDbEntity
  8
0
 62
0
370
0
100
AcDbLine
 10
50.8
 20
47.7
 30
0.0
 11
44.8
 21
71.7
 31
0.0
  0
LINE
  5
131
330
17
100
AcDbEntity
  8
0
 62
0
370
0
100
AcDbLine
 10
51.099999999999994
 20
47.7
 30
0.0
 11
45.099999999999994
 21
71.7
 31
0.0
  0
LINE
  5
132
330
17
100
AcDbEntity
  8
0
 62
0
370
0
100
AcDbLine
 10
51.4
 20
47.7
 30
0.0
 11
45.4
 21
71.7
 31
0.0
  0
LINE
  5
133
330
17
100
AcDbEntity
  8
0
 62
0
370
0
100
AcDbLine
 10
51.7
 20
47.7
 30
0.0
 11
45.7
 21
71.7
 31
0.0
  0
LINE
  5
134
330
17
100
AcDbEntity
  8
0
 62
0
370
0
100
AcDbLine
 10
52.0
 20
47.7
 30
0.0
 11
45.7
 21
71.7
 31
0.0
  0
LINE
  5
135
330
17
100
AcDbEntity
  8
0
 62
0
370
0
100
AcDbLine
 10
52.3
 20
47.7
 30
0.0
 11
45.7
 21
71.7
 31
0.0
  0
LINE
  5
136
330
17
100
AcDbEntity
  8
0
 62
0
370
0
100
AcDbLine
 10
52.599999999999994
 20
47.7
 30
0.0
 11
45.7
 21
71.7
 31
0.0
  0
LINE
  5
137
330
17
100
AcDbEntity
  8
0
 62
0
370
0
100
AcDbLine
 10
52.9
 20
47.7
 30
0.0
 11
45.7
 21
71.7
 31
0.0
  0
LINE
  5
138
330
17
100
AcDbEntity
  8
0
 62
0
370
0
100
AcDbLine
 10
53.2
 20
47.7
 30
0.0
 11
45.7
 21
71.7
 31
0.0
  0
LINE
  5
139
330
17
100
AcDbEntity
  8
0
 62
0
370
0
100
AcDbLine
 10
53.5
 20
47.7
 30
0.0
 11
45.7
 21
71.7
 31
0.0
  0
LINE
  5
13A
330
17
100
AcDbEntity
  8
0
 62
0
370
0
100
AcDbLine
 10
53.8
 20
47.7
 30
0.0
 11
45.7
 21
71.7
 31
0.0
  0
LINE
  5
13B
330
17
100
AcDbEntity
  8
0
 62
0
370
0
100
AcDbLine
 10
54.099999999999994
 20
47.7
 30
0.0
 11
45.7
 21
71.7
 31
0.0
  0
LINE
  5
13C
330
17
100
AcDbEntity
  8
0
 62
0
370
0
100
AcDbLine
 10
54.4
 20
47.7
 30
0.0
 11
45.7
 21
71.7
 31
0.0
  0
LINE
  5
13D
330
17
100
AcDbEntity
  8
0
 62
0
370
0
100
AcDbLine
 10
54.7
 20
47.7
 30
0.0
 11
45.7
 21
71.7
 31
0.0
  0
LINE
  5
13E
330
17
100
AcDbEntity
  8
0
 62
0
370
0
100
AcDbLine
 10
55.0
 20
47.7
 30
0.0
 11
45.7
 21
71.7
 31
0.0
  0
LINE
  5
13F
330
17
100
AcDbEntity
  8
0
 62
0
370
0
100
AcDbLine
 10
55.3
 20
47.7
 30
0.0
 11
45.7
 21
71.7
 31
0.0
  0
LINE
  5
140
330
17
100
AcDbEntity
  8
0
 62
0
370
0
100
AcDbLine
 10
55.599999999999994
 20
47.7
 30
0.0
 11
45.7
 21
71.7
 31
0.0
  0
LINE
  5
141
330
17
100
AcDbEntity
  8
0
 62
0
370
0
100
AcDbLine
 10
55.9
 20
47.7
 30
0.0
 11
45.7
 21
71.7
 31
0.0
  0
LINE
  5
142
330
17
100
AcDbEntity
  8
0
 62
0
370
0
100
AcDbLine
 10
56.2
 20
47.7
 30
0.0
 11
45.7
 21
71.7
 31
0.0
  0
LINE
  5
143
330
17
100
AcDbEntity
  8
0
 62
0
370
0
100
AcDbLine
 10
56.5
 20
47.7
 30
0.0
 11
45.7
 21
71.7
 31
0.0
  0
LINE
  5
144
330
17
100
AcDbEntity
  8
0
 62
0
370
0
100
AcDbLine
 10
56.8
 20
47.7
 30
0.0
 11
45.7
 21
71.7
 31
0.0
  0
LINE
  5
145
330
17
100
AcDbEntity
  8
0
 62
0
370
0
100
AcDbLine
 10
57.099999999999994
 20
47.7
 30
0.0
 11
45.7
 21
71.7
 31
0.0
  0
LINE
  5
146
330
17
100
AcDbEntity
  8
0
 62
0
370
0
100
AcDbLine
 10
57.4
 20
47.7
 30
0.0
 11
45.7
 21
71.7
 31
0.0
  0
LINE
  5
147
330
17
100
AcDbEntity
  8
0
 62
0
370
0
100
AcDbLine
 10
57.7
 20
47.7
 30
0.0
 11
45.7
 21
71.7
 31
0.0
  0
LINE
  5
148
330
17
100
AcDbEntity
  8
0
 62
0
370
0
100
AcDbLine
 10
58.0
 20
47.7
 30
0.0
 11
45.7
 21
71.7
 31
0.0
  0
LINE
  5
149
330
17
100
AcDbEntity
  8
0
 62
0
370
0
100
AcDbLine
 10
58.3
 20
47.7
 30
0.0
 11
45.7
 21
71.7
 31
0.0
  0
LINE
  5
14A
330
17
100
AcDbEntity
  8
0
 62
0
370
0
100
AcDbLine
 10
58.599999999999994
 20
47.7
 30
0.0
 11
45.7
 21
71.7
 31
0.0
  0
LINE
  5
14B
330
17
100
AcDbEntity
  8
0
 62
0
370
0
100
AcDbLine
 10
58.9
 20
47.7
 30
0.0
 11
45.7
 21
71.7
 31
0.0
  0
LINE
  5
14C
330
17
100
AcDbEntity
  8
0
 62
0
370
0
100
AcDbLine
 10
59.2
 20
47.7
 30
0.0
 11
45.7
 21
71.7
 31
0.0
  0
LINE
  5
14D
330
17
100
AcDbEntity
  8
0
 62
0
370
0
100
AcDbLine
 10
59.5
 20
47.7
 30
0.0
 11
45.7
 21
71.7
 31
0.0
  0
LINE
  5
14E
330
17
100
AcDbEntity
  8
0
 62
0
370
0
100
AcDbLine
 10
59.8
 20
47.7
 30
0.0
 11
45.7
 21
71.7
 31
0.0
  0
LINE
  5
14F
330
17
100
AcDbEntity
  8
0
 62
0
370
0
100
AcDbLine
 10
60.099999999999994
 20
47.7
 30
0.0
 11
45.7
 21
71.7
 31
0.0
  0
LINE
  5
150
330
17
100
AcDbEntity
  8
0
 62
0
370
0
100
AcDbLine
 10
60.39999999999999
 20
47.7
 30
0.0
 11
45.7
 21
71.7
 31
0.0
  0
LINE
  5
151
330
17
100
AcDbEntity
  8
0
 62
0
370
0
100
AcDbLine
 10
60.7
 20
47.7
 30
0.0
 11
45.7
 21
71.7
 31
0.0
  0
LINE
  5
152
330
17
100
AcDbEntity
  8
0
 62
0
370
0
100
AcDbLine
 10
61.0
 20
47.7
 30
0.0
 11
45.7
 21
71.7
 31
0.0
  0
LINE
  5
153
330
17
100
AcDbEntity
  8
0
 62
0
370
0
100
AcDbLine
 10
61.3
 20
47.7
 30
0.0
 11
45.7
 21
71.7
 31
0.0
  0
LINE
  5
154
330
17
100
AcDbEntity
  8
0
 62
0
370
0
100
AcDbLine
 10
61.599999999999994
 20
47.7
 30
0.0
 11
45.7
 21
71.7
 31
0.0
  0
LINE
  5
155
330
17
100
AcDbEntity
  8
0
 62
0
370
0
100
AcDbLine
 10
61.89999999999999
 20
47.7
 30
0.0
 11
45.7
 21
71.7
 31
0.0
  0
LINE
  5
156
330
17
100
AcDbEntity
  8
0
 62
0
370
0
100
AcDbLine
 10
62.2
 20
47.7
 30
0.0
 11
45.7
 21
71.7
 31
0.0
  0
LINE
  5
157
330
17
100
AcDbEntity
  8
0
 62
0
370
0
100
AcDbLine
 10
62.5
 20
47.7
 30
0.0
 11
45.7
 21
71.7
 31
0.0
  0
LINE
  5
158
330
17
100
AcDbEntity
  8
0
 62
0
370
0
100
AcDbLine
 10
62.8
 20
47.7
 30
0.0
 11
45.7
 21
71.7
 31
0.0
  0
LINE
  5
159
330
17
100
AcDbEntity
  8
0
 62
0
370
0
100
AcDbLine
 10
63.099999999999994
 20
47.7
 30
0.0
 11
45.7
 21
71.7
 31
0.0
  0
LINE
  5
15A
330
17
100
AcDbEntity
  8
0
 62
0
370
0
100
AcDbLine
 10
63.39999999999999
 20
47.7
 30
0.0
 11
45.7
 21
71.7
 31
0.0
  0
LINE
  5
15B
330
17
100
AcDbEntity
  8
0
 62
0
370
0
100
AcDbLine
 10
63.7
 20
47.7
 30
0.0
 11
45.7
 21
71.7
 31
0.0
  0
LINE
  5
15C
330
17
100
AcDbEntity
  8
0
 62
0
370
0
100
AcDbLine
 10
64.0
 20
47.7
 30
0.0
 11
45.7
 21
71.7
 31
0.0
  0
LINE
  5
15D
330
17
100
AcDbEntity
  8
0
 62
0
370
0
100
AcDbLine
 10
64.3
 20
47.7
 30
0.0
 11
45.7
 21
71.7
 31
0.0
  0
LINE
  5
15E
330
17
100
AcDbEntity
  8
0
 62
0
370
0
100
AcDbLine
 10
64.6
 20
47.7
 30
0.0
 11
45.7
 21
71.7
 31
0.0
  0
LINE
  5
15F
330
17
100
AcDbEntity
  8
0
 62
0
370
0
100
AcDbLine
 10
64.89999999999999
 20
47.7
 30
0.0
 11
45.7
 21
71.7
 31
0.0
  0
LINE
  5
160
330
17
100
AcDbEntity
  8
0
 62
0
370
0
100
AcDbLine
 10
65.2
 20
47.7
 30
0.0
 11
45.7
 21
71.7
 31
0.0
  0
LINE
  5
161
330
17
100
AcDbEntity
  8
0
 62
0
370
0
100
AcDbLine
 10
65.5
 20
47.7
 30
0.0
 11
45.7
 21
71.7
 31
0.0
  0
LINE
  5
162
330
17
100
AcDbEntity
  8
0
 62
0
370
0
100
AcDbLine
 10
65.8
 20
47.7
 30
0.0
 11
45.7
 21
71.7
 31
0.0
  0
LINE
  5
163
330
17
100
AcDbEntity
  8
0
 62
0
370
0
100
AcDbLine
 10
66.1
 20
47.7
 30
0.0
 11
45.7
 21
71.7
 31
0.0
  0
LINE
  5
164
330
17
100
AcDbEntity
  8
0
 62
0
370
0
100
AcDbLine
 10
66.39999999999999
 20
47.7
 30
0.0
 11
45.7
 21
71.7
 31
0.0
  0
LINE
  5
165
330
17
100
AcDbEntity
  8
0
 62
0
370
0
100
AcDbLine
 10
66.7
 20
47.7
 30
0.0
 11
45.7
 21
71.7
 31
0.0
  0
LINE
  5
166
330
17
100
AcDbEntity
  8
0
 62
0
370
0
100
AcDbLine
 10
67.0
 20
47.7
 30
0.0
 11
45.7
 21
71.7
 31
0.0
  0
LINE
  5
167
330
17
100
AcDbEntity
  8
0
 62
0
370
0
100
AcDbLine
 10
67.3
 20
47.7
 30
0.0
 11
45.7
 21
71.7
 31
0.0
  0
LINE
  5
168
330
17
100
AcDbEntity
  8
0
 62
0
370
0
100
AcDbLine
 10
67.6
 20
47.7
 30
0.0
 11
45.7
 21
71.7
 31
0.0
  0
LINE
  5
169
330
17
100
AcDbEntity
  8
0
 62
0
370
0
100
AcDbLine
 10
67.89999999999999
 20
47.7
 30
0.0
 11
45.7
 21
71.7
 31
0.0
  0
LINE
  5
16A
330
17
100
AcDbEntity
  8
0
 62
0
370
0
100
AcDbLine
 10
68.2
 20
47.7
 30
0.0
 11
45.7
 21
71.7
 31
0.0
  0
LINE
  5
16B
330
17
100
AcDbEntity
  8
0
 62
0
370
0
100
AcDbLine
 10
68.5
 20
47.7
 30
0.0
 11
45.7
 21
71.7
 31
0.0
  0
LINE
  5
16C
330
17
100
AcDbEntity
  8
0
 62
0
370
0
100
AcDbLine
 10
68.8
 20
47.7
 30
0.0
 11
45.7
 21
71.7
 31
0.0
  0
LINE
  5
16D
330
17
100
AcDbEntity
  8
0
 62
0
370
0
100
AcDbLine
 10
69.1
 20
47.7
 30
0.0
 11
45.7
 21
71.7
 31
0.0
  0
LINE
  5
16E
330
17
100
AcDbEntity
  8
0
 62
0
370
0
100
AcDbLine
 10
69.39999999999999
 20
47.7
 30
0.0
 11
45.7
 21
71.7
 31
0.0
  0
TEXT
  5
16F
330
17
100
AcDbEntity
  8
0
 62
0
100
AcDbText
 10
36.7
 20
59.7
 30
0.0
 40
2.5
  1
DWELLING
100
AcDbText
  0
LWPOLYLINE
  5
170
330
17
100
AcDbEntity
  8
0
 62
0
370
0
100
AcDbPolyline
 90
5
 70
0
 10
52.7
 20
52.7
 10
64.7
 20
52.7
 10
64.7
 20
62.7
 10
52.7
 20
62.7
 10
52.7
 20
52.7
  0
LINE
  5
171
330
17
100
AcDbEntity
  8
0
 62
0
370
0
100
AcDbLine
 10
53.0
 20
52.7
 30
0.0
 11
55.0
 21
62.7
 31
0.0
  0
LINE
  5
172
330
17
100
AcDbEntity
  8
0
 62
0
370
0
100
AcDbLine
 10
53.300000000000004
 20
52.7
 30
0.0
 11
55.300000000000004
 21
62.7
 31
0.0
  0
LINE
  5
173
330
17
100
AcDbEntity
  8
0
 62
0
370
0
100
AcDbLine
 10
53.6
 20
52.7
 30
0.0
 11
55.6
 21
62.7
 31
0.0
  0
LINE
  5
174
330
17
100
AcDbEntity
  8
0
 62
0
370
0
100
AcDbLine
 10
53.900000000000006
 20
52.7
 30
0.0
 11
55.900000000000006
 21
62.7
 31
0.0
  0
LINE
  5
175
330
17
100
AcDbEntity
  8
0
 62
0
370
0
100
AcDbLine
 10
54.2
 20
52.7
 30
0.0
 11
56.2
 21
62.7
 31
0.0
  0
LINE
  5
176
330
17
100
AcDbEntity
  8
0
 62
0
370
0
100
AcDbLine
 10
54.5
 20
52.7
 30
0.0
 11
56.5
 21
62.7
 31
0.0
  0
LINE
  5
177
330
17
100
AcDbEntity
  8
0
 62
0
370
0
100
AcDbLine
 10
54.800000000000004
 20
52.7
 30
0.0
 11
56.800000000000004
 21
62.7
 31
0.0
  0
LINE
  5
178
330
17
100
AcDbEntity
  8
0
 62
0
370
0
100
AcDbLine
 10
55.1
 20
52.7
 30
0.0
 11
57.1
 21
62.7
 31
0.0
  0
LINE
  5
179
330
17
100
AcDbEntity
  8
0
 62
0
370
0
100
AcDbLine
 10
55.400000000000006
 20
52.7
 30
0.0
 11
57.400000000000006
 21
62.7
 31
0.0
  0
LINE
  5
17A
330
17
100
AcDbEntity
  8
0
 62
0
370
0
100
AcDbLine
 10
55.7
 20
52.7
 30
0.0
 11
57.7
 21
62.7
 31
0.0
  0
LINE
  5
17B
330
17
100
AcDbEntity
  8
0
 62
0
370
0
100
AcDbLine
 10
56.0
 20
52.7
 30
0.0
 11
58.0
 21
62.7
 31
0.0
  0
LINE
  5
17C
330
17
100
AcDbEntity
  8
0
 62
0
370
0
100
AcDbLine
 10
56.300000000000004
 20
52.7
 30
0.0
 11
58.300000000000004
 21
62.7
 31
0.0
  0
LINE
  5
17D
330
17
100
AcDbEntity
  8
0
 62
0
370
0
100
AcDbLine
 10
56.6
 20
52.7
 30
0.0
 11
58.6
 21
62.7
 31
0.0
  0
LINE
  5
17E
330
17
100
AcDbEntity
  8
0
 62
0
370
0
100
AcDbLine
 10
56.900000000000006
 20
52.7
 30
0.0
 11
58.900000000000006
 21
62.7
 31
0.0
  0
LINE
  5
17F
330
17
100
AcDbEntity
  8
0
 62
0
370
0
100
AcDbLine
 10
57.2
 20
52.7
 30
0.0
 11
59.2
 21
62.7
 31
0.0
  0
LINE
  5
180
330
17
100
AcDbEntity
  8
0
 62
0
370
0
100
AcDbLine
 10
57.5
 20
52.7
 30
0.0
 11
59.5
 21
62.7
 31
0.0
  0
LINE
  5
181
330
17
100
AcDbEntity
  8
0
 62
0
370
0
100
AcDbLine
 10
57.800000000000004
 20
52.7
 30
0.0
 11
59.800000000000004
 21
62.7
 31
0.0
  0
LINE
  5
182
330
17
100
AcDbEntity
  8
0
 62
0
370
0
100
AcDbLine
 10
58.1
 20
52.7
 30
0.0
 11
60.1
 21
62.7
 31
0.0
  0
LINE
  5
183
330
17
100
AcDbEntity
  8
0
 62
0
370
0
100
AcDbLine
 10
58.400000000000006
 20
52.7
 30
0.0
 11
60.400000000000006
 21
62.7
 31
0.0
  0
LINE
  5
184
330
17
100
AcDbEntity
  8
0
 62
0
370
0
100
AcDbLine
 10
58.7
 20
52.7
 30
0.0
 11
60.7
 21
62.7
 31
0.0
  0
LINE
  5
185
330
17
100
AcDbEntity
  8
0
 62
0
370
0
100
AcDbLine
 10
59.0
 20
52.7
 30
0.0
 11
61.0
 21
62.7
 31
0.0
  0
LINE
  5
186
330
17
100
AcDbEntity
  8
0
 62
0
370
0
100
AcDbLine
 10
59.300000000000004
 20
52.7
 30
0.0
 11
61.300000000000004
 21
62.7
 31
0.0
  0
LINE
  5
187
330
17
100
AcDbEntity
  8
0
 62
0
370
0
100
AcDbLine
 10
59.6
 20
52.7
 30
0.0
 11
61.6
 21
62.7
 31
0.0
  0
LINE
  5
188
330
17
100
AcDbEntity
  8
0
 62
0
370
0
100
AcDbLine
 10
59.900000000000006
 20
52.7
 30
0.0
 11
61.900000000000006
 21
62.7
 31
0.0
  0
LINE
  5
189
330
17
100
AcDbEntity
  8
0
 62
0
370
0
100
AcDbLine
 10
60.2
 20
52.7
 30
0.0
 11
62.2
 21
62.7
 31
0.0
  0
LINE
  5
18A
330
17
100
AcDbEntity
  8
0
 62
0
370
0
100
AcDbLine
 10
60.5
 20
52.7
 30
0.0
 11
62.5
 21
62.7
 31
0.0
  0
LINE
  5
18B
330
17
100
AcDbEntity
  8
0
 62
0
370
0
100
AcDbLine
 10
60.800000000000004
 20
52.7
 30
0.0
 11
62.800000000000004
 21
62.7
 31
0.0
  0
LINE
  5
18C
330
17
100
AcDbEntity
  8
0
 62
0
370
0
100
AcDbLine
 10
61.1
 20
52.7
 30
0.0
 11
63.1
 21
62.7
 31
0.0
  0
LINE
  5
18D
330
17
100
AcDbEntity
  8
0
 62
0
370
0
100
AcDbLine
 10
61.400000000000006
 20
52.7
 30
0.0
 11
63.400000000000006
 21
62.7
 31
0.0
  0
LINE
  5
18E
330
17
100
AcDbEntity
  8
0
 62
0
370
0
100
AcDbLine
 10
61.7
 20
52.7
 30
0.0
 11
63.7
 21
62.7
 31
0.0
  0
LINE
  5
18F
330
17
100
AcDbEntity
  8
0
 62
0
370
0
100
AcDbLine
 10
62.0
 20
52.7
 30
0.0
 11
64.0
 21
62.7
 31
0.0
  0
LINE
  5
190
330
17
100
AcDbEntity
  8
0
 62
0
370
0
100
AcDbLine
 10
62.300000000000004
 20
52.7
 30
0.0
 11
64.30000000000001
 21
62.7
 31
0.0
  0
LINE
  5
191
330
17
100
AcDbEntity
  8
0
 62
0
370
0
100
AcDbLine
 10
62.6
 20
52.7
 30
0.0
 11
64.6
 21
62.7
 31
0.0
  0
LINE
  5
192
330
17
100
AcDbEntity
  8
0
 62
0
370
0
100
AcDbLine
 10
62.900000000000006
 20
52.7
 30
0.0
 11
64.7
 21
62.7
 31
0.0
  0
LINE
  5
193
330
17
100
AcDbEntity
  8
0
 62
0
370
0
100
AcDbLine
 10
63.2
 20
52.7
 30
0.0
 11
64.7
 21
62.7
 31
0.0
  0
LINE
  5
194
330
17
100
AcDbEntity
  8
0
 62
0
370
0
100
AcDbLine
 10
63.5
 20
52.7
 30
0.0
 11
64.7
 21
62.7
 31
0.0
  0
LINE
  5
195
330
17
100
AcDbEntity
  8
0
 62
0
370
0
100
AcDbLine
 10
63.800000000000004
 20
52.7
 30
0.0
 11
64.7
 21
62.7
 31
0.0
  0
LINE
  5
196
330
17
100
AcDbEntity
  8
0
 62
0
370
0
100
AcDbLine
 10
64.10000000000001
 20
52.7
 30
0.0
 11
64.7
 21
62.7
 31
0.0
  0
LINE
  5
197
330
17
100
AcDbEntity
  8
0
 62
0
370
0
100
AcDbLine
 10
64.4
 20
52.7
 30
0.0
 11
64.7
 21
62.7
 31
0.0
  0
LINE
  5
198
330
17
100
AcDbEntity
  8
0
 62
0
370
0
100
AcDbLine
 10
64.7
 20
52.7
 30
0.0
 11
64.7
 21
62.7
 31
0.0
  0
LINE
  5
199
330
17
100
AcDbEntity
  8
0
 62
0
370
0
100
AcDbLine
 10
65.0
 20
52.7
 30
0.0
 11
64.7
 21
62.7
 31
0.0
  0
LINE
  5
19A
330
17
100
AcDbEntity
  8
0
 62
0
370
0
100
AcDbLine
 10
65.3
 20
52.7
 30
0.0
 11
64.7
 21
62.7
 31
0.0
  0
LINE
  5
19B
330
17
100
AcDbEntity
  8
0
 62
0
370
0
100
AcDbLine
 10
65.60000000000001
 20
52.7
 30
0.0
 11
64.7
 21
62.7
 31
0.0
  0
LINE
  5
19C
330
17
100
AcDbEntity
  8
0
 62
0
370
0
100
AcDbLine
 10
65.9
 20
52.7
 30
0.0
 11
64.7
 21
62.7
 31
0.0
  0
LINE
  5
19D
330
17
100
AcDbEntity
  8
0
 62
0
370
0
100
AcDbLine
 10
66.2
 20
52.7
 30
0.0
 11
64.7
 21
62.7
 31
0.0
  0
LINE
  5
19E
330
17
100
AcDbEntity
  8
0
 62
0
370
0
100
AcDbLine
 10
66.5
 20
52.7
 30
0.0
 11
64.7
 21
62.7
 31
0.0
  0
LINE
  5
19F
330
17
100
AcDbEntity
  8
0
 62
0
370
0
100
AcDbLine
 10
66.8
 20
52.7
 30
0.0
 11
64.7
 21
62.7
 31
0.0
  0
LINE
  5
1A0
330
17
100
AcDbEntity
  8
0
 62
0
370
0
100
AcDbLine
 10
67.1
 20
52.7
 30
0.0
 11
64.7
 21
62.7
 31
0.0
  0
LINE
  5
1A1
330
17
100
AcDbEntity
  8
0
 62
0
370
0
100
AcDbLine
 10
67.4
 20
52.7
 30
0.0
 11
64.7
 21
62.7
 31
0.0
  0
LINE
  5
1A2
330
17
100
AcDbEntity
  8
0
 62
0
370
0
100
AcDbLine
 10
67.7
 20
52.7
 30
0.0
 11
64.7
 21
62.7
 31
0.0
  0
LINE
  5
1A3
330
17
100
AcDbEntity
  8
0
 62
0
370
0
100
AcDbLine
 10
68.0
 20
52.7
 30
0.0
 11
64.7
 21
62.7
 31
0.0
  0
LINE
  5
1A4
330
17
100
AcDbEntity
  8
0
 62
0
370
0
100
AcDbLine
 10
68.3
 20
52.7
 30
0.0
 11
64.7
 21
62.7
 31
0.0
  0
LINE
  5
1A5
330
17
100
AcDbEntity
  8
0
 62
0
370
0
100
AcDbLine
 10
68.6
 20
52.7
 30
0.0
 11
64.7
 21
62.7
 31
0.0
  0
LINE
  5
1A6
330
17
100
AcDbEntity
  8
0
 62
0
370
0
100
AcDbLine
 10
68.9
 20
52.7
 30
0.0
 11
64.7
 21
62.7
 31
0.0
  0
LINE
  5
1A7
330
17
100
AcDbEntity
  8
0
 62
0
370
0
100
AcDbLine
 10
69.2
 20
52.7
 30
0.0
 11
64.7
 21
62.7
 31
0.0
  0
LINE
  5
1A8
330
17
100
AcDbEntity
  8
0
 62
0
370
0
100
AcDbLine
 10
69.5
 20
52.7
 30
0.0
 11
64.7
 21
62.7
 31
0.0
  0
LINE
  5
1A9
330
17
100
AcDbEntity
  8
0
 62
0
370
0
100
AcDbLine
 10
69.8
 20
52.7
 30
0.0
 11
64.7
 21
62.7
 31
0.0
  0
LINE
  5
1AA
330
17
100
AcDbEntity
  8
0
 62
0
370
0
100
AcDbLine
 10
70.1
 20
52.7
 30
0.0
 11
64.7
 21
62.7
 31
0.0
  0
LINE
  5
1AB
330
17
100
AcDbEntity
  8
0
 62
0
370
0
100
AcDbLine
 10
70.4
 20
52.7
 30
0.0
 11
64.7
 21
62.7
 31
0.0
  0
LINE
  5
1AC
330
17
100
AcDbEntity
  8
0
 62
0
370
0
100
AcDbLine
 10
70.7
 20
52.7
 30
0.0
 11
64.7
 21
62.7
 31
0.0
  0
LINE
  5
1AD
330
17
100
AcDbEntity
  8
0
 62
0
370
0
100
AcDbLine
 10
71.0
 20
52.7
 30
0.0
 11
64.7
 21
62.7
 31
0.0
  0
LINE
  5
1AE
330
17
100
AcDbEntity
  8
0
 62
0
370
0
100
AcDbLine
 10
71.3
 20
52.7
 30
0.0
 11
64.7
 21
62.7
 31
0.0
  0
LINE
  5
1AF
330
17
100
AcDbEntity
  8
0
 62
0
370
0
100
AcDbLine
 10
71.6
 20
52.7
 30
0.0
 11
64.7
 21
62.7
 31
0.0
  0
LINE
  5
1B0
330
17
100
AcDbEntity
  8
0
 62
0
370
0
100
AcDbLine
 10
71.9
 20
52.7
 30
0.0
 11
64.7
 21
62.7
 31
0.0
  0
LINE
  5
1B1
330
17
100
AcDbEntity
  8
0
 62
0
370
0
100
AcDbLine
 10
72.2
 20
52.7
 30
0.0
 11
64.7
 21
62.7
 31
0.0
  0
LINE
  5
1B2
330
17
100
AcDbEntity
  8
0
 62
0
370
0
100
AcDbLine
 10
72.5
 20
52.7
 30
0.0
 11
64.7
 21
62.7
 31
0.0
  0
LINE
  5
1B3
330
17
100
AcDbEntity
  8
0
 62
0
370
0
100
AcDbLine
 10
72.8
 20
52.7
 30
0.0
 11
64.7
 21
62.7
 31
0.0
  0
LINE
  5
1B4
330
17
100
AcDbEntity
  8
0
 62
0
370
0
100
AcDbLine
 10
73.1
 20
52.7
 30
0.0
 11
64.7
 21
62.7
 31
0.0
  0
LINE
  5
1B5
330
17
100
AcDbEntity
  8
0
 62
0
370
0
100
AcDbLine
 10
73.4
 20
52.7
 30
0.0
 11
64.7
 21
62.7
 31
0.0
  0
LINE
  5
1B6
330
17
100
AcDbEntity
  8
0
 62
0
370
0
100
AcDbLine
 10
73.7
 20
52.7
 30
0.0
 11
64.7
 21
62.7
 31
0.0
  0
LINE
  5
1B7
330
17
100
AcDbEntity
  8
0
 62
0
370
0
100
AcDbLine
 10
74.0
 20
52.7
 30
0.0
 11
64.7
 21
62.7
 31
0.0
  0
LINE
  5
1B8
330
17
100
AcDbEntity
  8
0
 62
0
370
0
100
AcDbLine
 10
74.3
 20
52.7
 30
0.0
 11
64.7
 21
62.7
 31
0.0
  0
LINE
  5
1B9
330
17
100
AcDbEntity
  8
0
 62
0
370
0
100
AcDbLine
 10
74.6
 20
52.7
 30
0.0
 11
64.7
 21
62.7
 31
0.0
  0
TEXT
  5
1BA
330
17
100
AcDbEntity
  8
0
 62
0
100
AcDbText
 10
58.7
 20
57.7
 30
0.0
 40
2.5
  1
GARAGE
100
AcDbText
  0
LINE
  5
1BB
330
17
100
AcDbEntity
  8
0
 62
0
370
0
100
AcDbLine
 10
183.2
 20
162.79999999999998
 30
0.0
 11
183.2
 21
165.79999999999998
 31
0.0
  0
LINE
  5
1BC
330
17
100
AcDbEntity
  8
0
 62
0
370
0
100
AcDbLine
 10
183.2
 20
165.79999999999998
 30
0.0
 11
182.2
 21
164.29999999999998
 31
0.0
  0
LINE
  5
1BD
330
17
100
AcDbEntity
  8
0
 62
0
370
0
100
AcDbLine
 10
183.2
 20
165.79999999999998
 30
0.0
 11
184.2
 21
164.29999999999998
 31
0.0
  0
TEXT
  5
1BE
330
17
100
AcDbEntity
  8
0
 62
0
100
AcDbText
 10
183.2
 20
166.79999999999998
 30
0.0
 40
1.5
  1
N
100
AcDbText
  0
TEXT
  5
1BF
330
17
100
AcDbEntity
  8
0
 62
0
100
AcDbText
 10
12.7
 20
182.79999999999998
 30
0.0
 40
3.0
  1
SOIL PROFILE
100
AcDbText
  0
LWPOLYLINE
  5
1C0
330
17
100
AcDbEntity
  8
0
 62
0
370
0
100
AcDbPolyline
 90
5
 70
0
 10
12.7
 20
132.79999999999998
 10
40.2
 20
132.79999999999998
 10
40.2
 20
182.79999999999998
 10
12.7
 20
182.79999999999998
 10
12.7
 20
132.79999999999998
  0
TEXT
  5
1C1
330
17
100
AcDbEntity
  8
0
 62
0
100
AcDbText
 10
9.7
 20
132.79999999999998
 30
0.0
 40
2.0
  1
0
100
AcDbText
  0
TEXT
  5
1C2
330
17
100
AcDbEntity
  8
0
 62
0
100
AcDbText
 10
9.7
 20
141.13333333333333
 30
0.0
 40
2.0
  1
8
100
AcDbText
  0
TEXT
  5
1C3
330
17
100
AcDbEntity
  8
0
 62
0
100
AcDbText
 10
9.7
 20
149.46666666666664
 30
0.0
 40
2.0
  1
16
100
AcDbText
  0
TEXT
  5
1C4
330
17
100
AcDbEntity
  8
0
 62
0
100
AcDbText
 10
9.7
 20
157.79999999999998
 30
0.0
 40
2.0
  1
24
100
AcDbText
  0
TEXT
  5
1C5
330
17
100
AcDbEntity
  8
0
 62
0
100
AcDbText
 10
9.7
 20
166.13333333333333
 30
0.0
 40
2.0
  1
32
100
AcDbText
  0
TEXT
  5
1C6
330
17
100
AcDbEntity
  8
0
 62
0
100
AcDbText
 10
9.7
 20
174.46666666666664
 30
0.0
 40
2.0
  1
40
100
AcDbText
  0
TEXT
  5
1C7
330
17
100
AcDbEntity
  8
0
 62
0
100
AcDbText
 10
9.7
 20
182.79999999999998
 30
0.0
 40
2.0
  1
48
100
AcDbText
  0
TEXT
  5
1C8
330
17
100
AcDbEntity
  8
0
 62
0
100
AcDbText
 10
26.45
 20
184.79999999999998
 30
0.0
 40
2.5
  1
Obs Hole A
100
AcDbText
  0
LWPOLYLINE
  5
1C9
330
17
100
AcDbEntity
  8
0
 62
0
370
0
100
AcDbPolyline
 90
5
 70
0
 10
45.2
 20
132.79999999999998
 10
72.7
 20
132.79999999999998
 10
72.7
 20
182.79999999999998
 10
45.2
 20
182.79999999999998
 10
45.2
 20
132.79999999999998
  0
TEXT
  5
1CA
330
17
100
AcDbEntity
  8
0
 62
0
100
AcDbText
 10
42.2
 20
132.79999999999998
 30
0.0
 40
2.0
  1
0
100
AcDbText
  0
TEXT
  5
1CB
330
17
100
AcDbEntity
  8
0
 62
0
100
AcDbText
 10
42.2
 20
141.13333333333333
 30
0.0
 40
2.0
  1
8
100
AcDbText
  0
TEXT
  5
1CC
330
17
100
AcDbEntity
  8
0
 62
0
100
AcDbText
 10
42.2
 20
149.46666666666664
 30
0.0
 40
2.0
  1
16
100
AcDbText
  0
TEXT
  5
1CD
330
17
100
AcDbEntity
  8
0
 62
0
100
AcDbText
 10
42.2
 20
157.79999999999998
 30
0.0
 40
2.0
  1
24
100
AcDbText
  0
TEXT
  5
1CE
330
17
100
AcDbEntity
  8
0
 62
0
100
AcDbText
 10
42.2
 20
166.13333333333333
 30
0.0
 40
2.0
  1
32
100
AcDbText
  0
TEXT
  5
1CF
330
17
100
AcDbEntity
  8
0
 62
0
100
AcDbText
 10
42.2
 20
174.46666666666664
 30
0.0
 40
2.0
  1
40
100
AcDbText
  0
TEXT
  5
1D0
330
17
100
AcDbEntity
  8
0
 62
0
100
AcDbText
 10
42.2
 20
182.79999999999998
 30
0.0
 40
2.0
  1
48
100
AcDbText
  0
TEXT
  5
1D1
330
17
100
AcDbEntity
  8
0
 62
0
100
AcDbText
 10
58.95
 20
184.79999999999998
 30
0.0
 40
2.5
  1
Obs Hole B
100
AcDbText
  0
LWPOLYLINE
  5
1D2
330
17
100
AcDbEntity
  8
0
 62
8
370
0
100
AcDbPolyline
 90
5
 70
0
 10
140.5
 20
137.79999999999998
 10
190.5
 20
137.79999999999998
 10
190.5
 20
177.79999999999998
 10
140.5
 20
177.79999999999998
 10
140.5
 20
137.79999999999998
  0
TEXT
  5
1D3
330
17
100
AcDbEntity
  8
0
 62
0
100
AcDbText
 10
165.5
 20
157.79999999999998
 30
0.0
 40
2.0
  1
LOCUS
100
AcDbText
  0
TEXT
  5
1D4
330
17
100
AcDbEntity
  8
0
 62
0
100
AcDbText
 10
12.7
 20
261.7
 30
0.0
 40
3.5
  1
SITE PLAN
100
AcDbText
  0
TEXT
  5
1D5
330
17
100
AcDbEntity
  8
0
 62
0
100
AcDbText
 10
12.7
 20
257.7
 30
0.0
 40
2.0
  1
Scale: 1" = 100'
100
AcDbText
  0
ENDSEC
  0
SECTION
  2
OBJECTS
  0
DICTIONARY
  5
A
330
0
100
AcDbDictionary
281
1
  3
ACAD_COLOR
350
B
  3
ACAD_GROUP
350
C
  3
ACAD_LAYOUT
350
D
  3
ACAD_MATERIAL
350
E
  3
ACAD_MLEADERSTYLE
350
F
  3
ACAD_MLINESTYLE
350
10
  3
ACAD_PLOTSETTINGS
350
11
  3
ACAD_PLOTSTYLENAME
350
12
  3
ACAD_SCALELIST
350
14
  3
ACAD_TABLESTYLE
350
15
  3
ACAD_VISUALSTYLE
350
16
  3
EZDXF_META
350
2D
  0
DICTIONARY
  5
B
330
A
100
AcDbDictionary
281
1
  0
DICTIONARY
  5
C
330
A
100
AcDbDictionary
281
1
  0
DICTIONARY
  5
D
330
A
100
AcDbDictionary
281
1
  3
Model
350
1A
  3
Layout1
350
1E
  0
DICTIONARY
  5
E
330
A
100
AcDbDictionary
281
1
  3
ByBlock
350
1F
  3
ByLayer
350
20
  3
Global
350
21
  0
DICTIONARY
  5
F
330
A
100
AcDbDictionary
281
1
  3
Standard
350
2C
  0
DICTIONARY
  5
10
330
A
100
AcDbDictionary
281
1
  3
Standard
350
22
  0
DICTIONARY
  5
11
330
A
100
AcDbDictionary
281
1
  0
ACDBDICTIONARYWDFLT
  5
12
330
A
100
AcDbDictionary
281
1
  3
Normal
350
13
100
AcDbDictionaryWithDefault
340
13
  0
ACDBPLACEHOLDER
  5
13
330
12
  0
DICTIONARY
  5
14
330
A
100
AcDbDictionary
281
1
  0
DICTIONARY
  5
15
330
A
100
AcDbDictionary
281
1
  0
DICTIONARY
  5
16
330
A
100
AcDbDictionary
281
1
  0
LAYOUT
  5
1A
330
D
100
AcDbPlotSettings
  1

  4
A3
  6

 40
7.5
 41
20.0
 42
7.5
 43
20.0
 44
420.0
 45
297.0
 46
0.0
 47
0.0
 48
0.0
 49
0.0
140
0.0
141
0.0
142
1.0
143
1.0
 70
1024
 72
1
 73
0
 74
5
  7

 75
16
 76
0
 77
2
 78
300
147
1.0
148
0.0
149
0.0
100
AcDbLayout
  1
Model
 70
1
 71
0
 10
0.0
 20
0.0
 11
420.0
 21
297.0
 12
0.0
 22
0.0
 32
0.0
 14
1e+20
 24
1e+20
 34
1e+20
 15
-1e+20
 25
-1e+20
 35
-1e+20
146
0.0
 13
0.0
 23
0.0
 33
0.0
 16
1.0
 26
0.0
 36
0.0
 17
0.0
 27
1.0
 37
0.0
 76
1
330
17
  0
LAYOUT
  5
1E
330
D
100
AcDbPlotSettings
  1

  4
A3
  6

 40
7.5
 41
20.0
 42
7.5
 43
20.0
 44
420.0
 45
297.0
 46
0.0
 47
0.0
 48
0.0
 49
0.0
140
0.0
141
0.0
142
1.0
143
1.0
 70
0
 72
1
 73
0
 74
5
  7

 75
16
 76
0
 77
2
 78
300
147
1.0
148
0.0
149
0.0
100
AcDbLayout
  1
Layout1
 70
1
 71
1
 10
0.0
 20
0.0
 11
420.0
 21
297.0
 12
0.0
 22
0.0
 32
0.0
 14
1e+20
 24
1e+20
 34
1e+20
 15
-1e+20
 25
-1e+20
 35
-1e+20
146
0.0
 13
0.0
 23
0.0
 33
0.0
 16
1.0
 26
0.0
 36
0.0
 17
0.0
 27
1.0
 37
0.0
 76
1
330
1B
  0
MATERIAL
  5
1F
102
{ACAD_REACTORS
330
E
102
}
330
E
100
AcDbMaterial
  1
ByBlock
  2

 70
0
 40
1.0
 71
1
 41
1.0
 91
-1023410177
 42
1.0
 72
1
  3

 73
1
 74
1
 75
1
 44
0.5
 73
0
 45
1.0
 46
1.0
 77
1
  4

 78
1
 79
1
170
1
 48
1.0
171
1
  6

172
1
173
1
174
1
140
1.0
141
1.0
175
1
  7

176
1
177
1
178
1
143
1.0
179
1
  8

270
1
271
1
272
1
145
1.0
146
1.0
273
1
  9

274
1
275
1
276
1
 42
1.0
 72
1
  3

 73
1
 74
1
 75
1
 94
63
  0
MATERIAL
  5
20
102
{ACAD_REACTORS
330
E
102
}
330
E
100
AcDbMaterial
  1
ByLayer
  2

 70
0
 40
1.0
 71
1
 41
1.0
 91
-1023410177
 42
1.0
 72
1
  3

 73
1
 74
1
 75
1
 44
0.5
 73
0
 45
1.0
 46
1.0
 77
1
  4

 78
1
 79
1
170
1
 48
1.0
171
1
  6

172
1
173
1
174
1
140
1.0
141
1.0
175
1
  7

176
1
177
1
178
1
143
1.0
179
1
  8

270
1
271
1
272
1
145
1.0
146
1.0
273
1
  9

274
1
275
1
276
1
 42
1.0
 72
1
  3

 73
1
 74
1
 75
1
 94
63
  0
MATERIAL
  5
21
102
{ACAD_REACTORS
330
E
102
}
330
E
100
AcDbMaterial
  1
Global
  2

 70
0
 40
1.0
 71
1
 41
1.0
 91
-1023410177
 42
1.0
 72
1
  3

 73
1
 74
1
 75
1
 44
0.5
 73
0
 45
1.0
 46
1.0
 77
1
  4

 78
1
 79
1
170
1
 48
1.0
171
1
  6

172
1
173
1
174
1
140
1.0
141
1.0
175
1
  7

176
1
177
1
178
1
143
1.0
179
1
  8

270
1
271
1
272
1
145
1.0
146
1.0
273
1
  9

274
1
275
1
276
1
 42
1.0
 72
1
  3

 73
1
 74
1
 75
1
 94
63
  0
MLINESTYLE
  5
22
102
{ACAD_REACTORS
330
10
102
}
330
10
100
AcDbMlineStyle
  2
Standard
 70
0
  3

 62
256
 51
90.0
 52
90.0
 71
2
 49
0.5
 62
256
  6
BYLAYER
 49
-0.5
 62
256
  6
BYLAYER
  0
MLEADERSTYLE
  5
2C
102
{ACAD_REACTORS
330
F
102
}
330
F
100
AcDbMLeaderStyle
179
2
170
2
171
1
172
0
 90
2
 40
0.0
 41
0.0
173
1
 91
-1056964608
 92
-2
290
1
 42
2.0
291
1
 43
8.0
  3
Standard
 44
4.0
300

342
29
174
1
175
1
176
0
178
1
 93
-1056964608
 45
4.0
292
0
297
0
 46
4.0
 94
-1056964608
 47
1.0
 49
1.0
140
1.0
294
1
141
0.0
177
0
142
1.0
295
0
296
0
143
3.75
271
0
272
9
273
9
  0
DICTIONARY
  5
2D
330
A
100
AcDbDictionary
280
1
281
1
  3
CREATED_BY_EZDXF
350
2E
  3
WRITTEN_BY_EZDXF
350
1D8
  0
DICTIONARYVAR
  5
2E
330
2D
100
DictionaryVariables
280
0
  1
1.4.4 @ 2026-06-17T12:44:50.670646+00:00
  0
DICTIONARYVAR
  5
1D8
330
2D
100
DictionaryVariables
280
0
  1
1.4.4 @ 2026-06-17T12:44:50.680549+00:00
  0
ENDSEC
  0
EOF
